<?xml version="1.0" standalone="no"?>
<!DOCTYPE svg PUBLIC "-//W3C//DTD SVG 20010904//EN"
 "http://www.w3.org/TR/2001/REC-SVG-20010904/DTD/svg10.dtd">
<svg version="1.0" xmlns="http://www.w3.org/2000/svg"
 width="506.000000pt" height="506.000000pt" viewBox="0 0 506.000000 506.000000"
 preserveAspectRatio="xMidYMid meet">
<metadata>
Created by potrace 1.11, written by Peter Selinger 2001-2013
</metadata>
<g transform="translate(0.000000,506.000000) scale(0.100000,-0.100000)"
fill="#000000" stroke="none">
<path d="M1 4908 c1 -84 4 -143 6 -130 4 18 10 21 30 17 15 -2 31 -9 36 -14 6
-6 37 -7 73 -4 l64 6 0 -65 c0 -49 4 -67 15 -72 12 -4 15 3 15 37 0 62 8 82
38 94 23 9 17 11 -44 12 -67 1 -72 3 -76 25 l-5 23 114 2 c120 1 117 2 116
-46 -1 -9 19 -13 68 -13 l69 0 0 -33 c0 -18 6 -42 14 -52 13 -19 15 -18 20 15
14 88 16 84 -36 90 -27 3 -48 2 -48 -2 0 -4 -4 -8 -10 -8 -5 0 -10 9 -10 19 0
11 -6 22 -12 24 -7 3 40 6 105 6 102 1 117 -1 117 -15 0 -9 8 -23 18 -30 22
-17 144 -18 160 -2 10 10 17 10 32 0 11 -6 31 -12 46 -12 24 0 24 1 9 16 -12
13 -13 20 -5 28 8 8 16 5 30 -12 11 -13 24 -20 31 -16 8 5 7 9 -5 16 -27 15
-18 29 16 26 25 -2 34 -9 39 -28 3 -14 2 -33 -3 -43 -14 -27 0 -74 24 -80 19
-5 20 -2 16 53 -2 32 -1 57 3 54 16 -9 37 8 32 27 -4 13 0 19 12 19 13 0 16
-6 11 -24 -7 -30 5 -39 53 -40 l36 -1 3 -77 c2 -60 6 -78 17 -78 12 0 15 16
15 73 l0 72 47 17 c49 18 63 16 63 -8 0 -20 16 -18 40 6 28 28 40 25 41 -12 1
-18 3 -25 6 -15 3 11 11 16 21 13 9 -3 42 -6 72 -8 45 -2 55 1 58 15 5 25 21
21 28 -7 5 -22 7 -23 32 -10 14 7 29 11 33 9 4 -3 9 4 12 15 7 26 27 26 27 1
0 -13 8 -21 23 -23 20 -3 22 -9 25 -75 2 -46 -1 -73 -8 -73 -5 0 -10 -7 -10
-15 0 -12 15 -15 75 -15 l75 0 0 -100 c0 -100 0 -100 25 -100 l25 0 -3 115 -2
115 -69 0 -69 0 5 70 c4 54 10 74 24 85 21 16 114 20 114 5 0 -5 7 -7 15 -4 8
3 13 11 12 17 -1 7 8 11 23 9 74 -9 100 -15 100 -23 0 -5 10 -9 23 -8 12 0 16
3 9 6 -6 2 -10 9 -6 14 3 5 -11 18 -30 30 -20 12 -36 23 -36 25 0 2 54 4 119
4 115 0 120 -1 123 -22 5 -32 28 -35 28 -4 0 21 5 26 25 26 22 0 25 -5 25 -32
0 -25 3 -29 10 -18 8 13 10 13 10 -1 0 -9 7 -23 16 -30 13 -11 17 -10 26 5 6
12 20 17 41 16 18 -1 46 -1 62 0 29 1 29 2 7 11 -13 5 -35 6 -48 3 -19 -5 -23
-3 -18 10 3 9 13 16 21 16 8 0 11 5 8 10 -4 6 42 10 129 10 l136 0 0 -30 c0
-29 2 -30 45 -30 35 0 45 4 45 16 0 16 27 43 43 44 17 0 5 -32 -13 -37 -23 -6
-27 -23 -5 -23 10 0 15 -10 15 -29 0 -16 6 -31 15 -35 11 -4 15 2 15 24 0 17
-5 30 -12 30 -10 0 -10 2 -2 8 7 4 14 18 17 32 l4 25 2 -26 c1 -26 4 -27 69
-33 58 -5 80 -4 125 3 5 0 6 15 2 32 -6 24 -4 30 6 27 8 -3 14 -11 14 -19 0
-22 52 -39 121 -39 l64 0 0 -80 c0 -44 4 -80 9 -80 5 0 12 30 16 68 9 92 9 92
53 92 21 0 43 5 49 11 6 6 21 9 34 7 21 -3 24 -9 27 -55 2 -32 -1 -53 -7 -53
-6 0 -11 -15 -11 -34 0 -40 29 -67 62 -58 18 4 18 6 4 14 -17 10 -22 76 -10
137 6 30 9 32 48 29 l41 -3 3 -82 c2 -48 7 -83 13 -83 6 0 8 4 4 9 -3 5 -1 12
5 16 5 3 10 38 10 77 l0 70 198 -5 c255 -7 321 -18 323 -54 0 -11 6 -6 15 15
8 17 17 32 20 32 3 0 3 -4 0 -9 -3 -4 1 -17 9 -27 14 -18 14 -18 15 -1 0 15 7
18 33 16 17 -1 45 2 60 6 37 10 46 -1 54 -65 5 -47 8 -51 20 -35 7 11 13 38
13 61 0 24 4 45 8 48 5 3 51 8 103 12 52 4 100 11 107 17 9 7 20 7 35 -1 12
-6 52 -13 90 -17 56 -5 67 -3 67 10 0 25 17 17 30 -15 7 -16 10 -41 6 -54 -3
-13 -2 -26 3 -28 5 -2 12 -20 16 -40 l7 -38 -80 0 c-62 0 -81 -3 -86 -15 -4
-11 1 -15 19 -15 17 0 25 -6 26 -17 0 -10 2 -25 5 -33 2 -8 7 -28 10 -45 7
-30 7 -30 -14 -12 -11 11 -26 16 -31 12 -14 -8 -14 -65 -1 -65 6 0 10 -9 10
-20 0 -17 7 -20 40 -20 33 0 40 3 40 20 0 16 7 20 30 20 30 0 30 0 30 -56 l0
-56 43 7 c75 12 72 -6 76 390 l3 355 -2531 0 -2531 0 1 -152z m2037 135 c-21
-2 -55 -2 -75 0 -21 2 -4 4 37 4 41 0 58 -2 38 -4z m-1889 -56 c6 -8 14 -29
17 -48 4 -23 3 -30 -4 -20 -6 8 -15 10 -23 5 -12 -6 -12 -5 -1 8 9 11 10 18 2
23 -5 3 -10 1 -10 -6 0 -8 -5 -7 -17 2 -14 12 -16 12 -11 -2 4 -10 1 -16 -8
-16 -19 0 -18 26 3 49 19 21 36 23 52 5z m115 -9 c22 -31 20 -41 -4 -28 -12 6
-30 8 -40 5 -26 -8 -27 20 -2 34 24 15 29 14 46 -11z m110 6 c9 -8 16 -22 16
-30 0 -12 -3 -12 -20 -2 -16 10 -24 10 -40 0 -17 -10 -20 -10 -20 2 0 16 26
46 40 46 5 0 16 -7 24 -16z m137 -64 c5 0 9 -4 9 -10 0 -5 -7 -10 -15 -10 -11
0 -15 11 -13 43 1 36 2 38 5 10 2 -18 8 -33 14 -33z m155 46 c8 -8 14 -26 14
-40 0 -22 -4 -26 -30 -26 -24 0 -30 4 -31 23 -1 21 -1 21 -9 -3 l-8 -25 -2 25
c-3 24 -3 24 -7 3 -3 -18 -11 -23 -34 -23 -26 0 -29 3 -29 30 0 20 5 30 15 30
8 0 15 -6 15 -12 0 -10 3 -9 9 1 6 9 20 12 40 9 21 -3 31 0 31 9 0 17 8 17 26
-1z m64 -27 c0 -33 -3 -40 -17 -37 -25 5 -28 36 -6 58 10 10 19 19 21 19 1 1
2 -17 2 -40z m80 11 c5 0 11 8 13 18 3 9 5 -3 5 -28 0 -25 -2 -37 -5 -27 -2 9
-8 17 -13 17 -5 0 -11 -8 -13 -17 -3 -10 -5 2 -5 27 0 25 2 37 5 28 2 -10 8
-18 13 -18z m140 14 c0 -8 3 -13 8 -11 4 3 7 -7 8 -22 1 -19 -4 -27 -18 -28
-15 -2 -18 6 -18 38 0 21 5 39 10 39 6 0 10 -7 10 -16z m-170 -34 c0 -23 -4
-30 -20 -30 -21 0 -27 24 -9 36 8 4 7 9 -2 15 -10 6 -8 9 9 9 18 0 22 -6 22
-30z m101 18 c0 -10 2 -10 6 0 5 14 33 17 33 3 0 -5 -6 -12 -12 -15 -10 -5
-10 -7 0 -12 17 -8 15 -24 -3 -24 -8 0 -15 6 -16 13 0 10 -2 10 -6 0 -6 -16
-29 -17 -38 -3 -4 6 -2 17 4 24 6 7 8 16 4 19 -3 4 1 7 10 7 10 0 17 -6 18
-12z m-747 -46 c3 -5 -1 -9 -9 -9 -8 0 -12 4 -9 9 3 4 7 8 9 8 2 0 6 -4 9 -8z
m589 -76 c3 -8 3 -16 0 -19 -9 -10 -33 5 -33 19 0 18 26 18 33 0z m1265 7
c-20 -3 -28 -10 -28 -24 0 -10 -4 -19 -9 -19 -5 0 -8 8 -6 18 2 9 4 20 4 25 1
4 16 6 34 6 30 -2 30 -2 5 -6z m1442 -4 c0 -6 -6 -17 -14 -25 -16 -16 -36 -19
-36 -5 0 5 -7 17 -16 25 -14 15 -12 16 25 16 23 0 41 -5 41 -11z m220 -19 c0
-5 -9 -10 -20 -10 -11 0 -20 5 -20 10 0 6 9 10 20 10 11 0 20 -4 20 -10z
m-1180 -10 c0 -5 -7 -10 -16 -10 -8 0 -12 5 -9 10 3 6 10 10 16 10 5 0 9 -4 9
-10z"/>
<path d="M2168 4823 c-10 -3 -18 -9 -18 -14 0 -15 30 -23 42 -11 6 6 17 8 24
5 8 -3 14 1 14 8 0 7 -3 9 -6 6 -4 -3 -14 -3 -23 2 -9 4 -24 6 -33 4z"/>
<path d="M2240 4810 c0 -5 5 -10 10 -10 6 0 10 5 10 10 0 6 -4 10 -10 10 -5 0
-10 -4 -10 -10z"/>
<path d="M2716 4793 c-6 -14 -5 -15 5 -6 7 7 10 15 7 18 -3 3 -9 -2 -12 -12z"/>
<path d="M2436 4714 c4 -21 0 -40 -11 -57 -9 -14 -15 -30 -13 -34 2 -4 -7 -9
-20 -11 -20 -3 -29 -25 -9 -23 4 1 14 1 22 1 8 0 15 7 15 15 0 8 7 15 15 15
11 0 15 12 15 48 0 26 -5 54 -10 62 -7 11 -8 6 -4 -16z"/>
<path d="M2108 4713 c7 -3 16 -2 19 1 4 3 -2 6 -13 5 -11 0 -14 -3 -6 -6z"/>
<path d="M2 4680 c0 -19 2 -27 5 -17 2 9 2 25 0 35 -3 9 -5 1 -5 -18z"/>
<path d="M2699 4700 c0 -3 -3 -16 -5 -30 -4 -24 -4 -24 13 -8 13 14 15 21 5
30 -7 7 -12 10 -13 8z"/>
<path d="M803 4670 c-1 -11 2 -20 6 -20 5 0 11 9 14 20 3 12 0 20 -7 20 -6 0
-12 -9 -13 -20z"/>
<path d="M2151 4664 c0 -11 3 -14 6 -6 3 7 2 16 -1 19 -3 4 -6 -2 -5 -13z"/>
<path d="M1030 4645 c0 -18 5 -25 20 -25 15 0 20 7 20 25 0 18 -5 25 -20 25
-15 0 -20 -7 -20 -25z"/>
<path d="M1492 4643 l-2 -33 -90 0 c-72 0 -90 -3 -90 -14 0 -11 14 -16 48 -18
l47 -3 3 -77 c2 -60 6 -78 17 -78 12 0 15 17 15 80 l0 80 40 0 c29 0 40 4 40
15 0 8 -4 15 -9 15 -6 0 -12 15 -14 33 l-4 32 -1 -32z"/>
<path d="M2920 4645 c0 -16 6 -25 15 -25 9 0 15 9 15 25 0 16 -6 25 -15 25 -9
0 -15 -9 -15 -25z"/>
<path d="M3832 4645 c0 -16 2 -22 5 -12 2 9 2 23 0 30 -3 6 -5 -1 -5 -18z"/>
<path d="M2 4567 c-1 -40 2 -85 6 -102 7 -22 9 -3 9 68 0 113 -11 139 -15 34z"/>
<path d="M2188 4623 c-42 -6 -38 -41 5 -45 l32 -3 0 -133 c0 -130 0 -132 23
-132 18 0 22 -6 22 -30 0 -19 5 -30 14 -30 8 0 16 -10 18 -22 4 -32 -14 -98
-27 -97 -26 3 -35 -2 -35 -21 0 -11 -6 -20 -12 -21 -120 -5 -187 -29 -167 -60
5 -8 9 -24 9 -36 0 -12 5 -23 12 -25 7 -3 8 -10 4 -17 -7 -11 -10 -11 -16 -1
-6 10 -20 11 -59 3 -56 -11 -61 -9 -61 23 0 15 8 25 23 29 60 17 65 24 63 84
-3 67 9 98 38 100 73 4 161 12 165 16 2 3 -80 5 -182 5 -160 0 -187 -2 -187
-15 0 -9 -9 -15 -25 -15 -16 0 -25 6 -25 15 0 10 -10 15 -30 15 l-30 0 0 85 0
85 35 0 c24 0 35 5 35 15 0 12 -17 15 -95 15 -76 0 -95 -3 -95 -14 0 -10 13
-16 38 -18 l37 -3 0 -80 0 -80 -69 -3 -68 -3 4 101 4 100 -36 0 -36 0 4 -65
c2 -35 1 -81 -2 -100 l-7 -36 -152 3 -152 3 -5 65 c-4 52 -9 66 -22 68 -13 2
-18 -4 -18 -23 0 -14 5 -25 11 -25 8 0 7 -5 -1 -15 -14 -17 -22 -95 -10 -95 5
0 10 6 13 13 3 9 10 9 30 -2 26 -14 26 -16 11 -38 -20 -31 -26 -63 -12 -63 6
0 8 -9 5 -20 -6 -24 15 -27 33 -5 9 11 16 12 26 4 16 -13 34 -4 34 17 0 12 3
12 20 2 11 -7 20 -20 20 -29 0 -9 -9 -26 -20 -39 -11 -13 -20 -34 -20 -47 0
-22 3 -24 29 -18 25 5 29 3 35 -19 3 -15 13 -26 21 -26 11 0 13 -13 10 -60 -2
-33 0 -74 5 -90 7 -25 6 -30 -9 -30 -10 0 -18 7 -18 15 0 8 4 15 8 15 8 0 1
60 -8 70 -11 13 -21 -30 -16 -67 9 -64 -16 -54 -32 12 -2 6 -3 15 -4 21 -2 19
-40 24 -56 7 -8 -8 -19 -11 -25 -8 -5 3 -10 -3 -10 -15 0 -38 -19 -62 -43 -54
-12 4 -24 10 -27 14 -3 4 -18 -1 -35 -11 -16 -11 -25 -19 -20 -19 6 0 4 -4 -2
-8 -9 -6 -4 -13 17 -26 26 -15 30 -15 30 -2 0 9 7 16 16 16 8 0 12 -5 9 -10
-3 -6 1 -13 10 -16 10 -4 25 4 40 20 13 14 32 26 42 26 17 1 17 1 1 11 -25 14
-23 54 2 56 11 1 20 -2 20 -8 0 -5 -6 -9 -12 -9 -9 0 -8 -3 2 -9 8 -6 18 -7
22 -5 4 3 8 -4 8 -15 0 -14 6 -21 19 -21 18 0 31 -22 36 -62 1 -10 -2 -18 -6
-18 -5 0 -9 7 -9 15 0 8 -7 15 -15 15 -9 0 -18 -7 -21 -15 -9 -23 -23 -18 -17
8 4 21 4 21 -11 4 -8 -11 -12 -25 -9 -33 3 -8 -1 -14 -11 -14 -9 0 -16 -5 -16
-12 0 -6 -3 -8 -6 -5 -4 3 -16 -5 -27 -19 -18 -23 -21 -24 -35 -10 -13 13 -13
17 1 40 21 31 23 53 4 37 -9 -7 -17 -7 -24 0 -7 7 -14 5 -23 -6 -7 -8 -9 -15
-4 -15 5 0 10 -11 10 -23 2 -21 -3 -24 -37 -25 -39 -2 -69 17 -69 44 0 9 -11
14 -30 14 -20 0 -30 -5 -30 -15 0 -20 -17 -19 -29 3 -9 15 -11 13 -16 -14 -6
-28 -10 -31 -46 -31 -21 0 -39 2 -39 5 0 2 11 17 25 34 14 16 25 36 25 44 0 8
12 19 26 24 17 7 24 15 20 25 -4 11 3 15 27 16 27 2 28 2 7 6 -50 9 -43 22 13
22 35 -1 55 -5 54 -12 -1 -6 6 -12 15 -15 12 -2 23 9 37 36 l20 39 -46 1 c-26
1 -52 -2 -57 -7 -22 -16 -56 -20 -56 -5 0 11 -7 11 -40 -2 -22 -9 -51 -13 -64
-10 -14 3 -32 3 -40 0 -19 -7 -22 -36 -3 -33 42 5 54 -25 12 -33 -20 -4 -25 0
-30 23 -4 15 -13 33 -21 40 -8 6 -14 19 -15 28 0 11 -3 9 -9 -6 -5 -13 -15
-23 -23 -23 -16 0 -36 55 -33 90 2 22 8 25 45 28 23 2 55 -3 71 -11 16 -8 30
-11 32 -7 2 4 18 5 35 3 24 -4 33 -11 33 -24 0 -11 5 -19 10 -19 15 0 12 26
-4 43 -13 12 -12 16 10 25 15 7 24 8 24 2 0 -18 32 -10 37 9 4 14 15 21 41 23
21 2 37 9 40 18 4 12 3 13 -10 2 -18 -15 -48 -6 -48 14 0 18 -8 18 -45 -2 -17
-9 -63 -19 -105 -21 -65 -4 -78 -2 -98 15 -20 18 -34 20 -97 17 -79 -4 -96 5
-108 53 -5 21 -2 22 66 24 40 1 92 2 117 3 63 3 80 -3 80 -27 0 -12 3 -18 7
-14 4 4 8 15 8 24 0 14 11 17 56 18 31 1 61 4 67 8 12 7 12 46 -1 46 -4 0 -6
17 -2 37 5 36 5 36 -15 18 -11 -10 -20 -15 -20 -10 0 4 -7 2 -15 -5 -8 -6 -23
-9 -34 -5 -12 3 -26 3 -33 -1 -6 -4 -35 -6 -62 -5 -32 1 -58 -3 -71 -12 -15
-12 -21 -12 -30 -2 -5 7 -24 15 -42 18 -26 5 -33 3 -38 -14 -4 -11 -1 -26 5
-34 9 -11 9 -15 1 -15 -6 0 -11 5 -11 10 0 6 -5 10 -11 10 -7 0 -25 14 -41 30
-15 17 -24 30 -19 30 5 0 11 9 14 20 5 19 0 20 -89 20 -91 0 -94 -1 -82 -19 9
-15 16 -17 25 -9 9 7 14 6 19 -6 7 -19 40 -21 47 -3 3 8 7 6 12 -5 4 -10 4
-25 1 -35 -6 -15 -8 -14 -20 2 -9 13 -15 15 -20 6 -5 -8 -15 -6 -36 9 -15 11
-37 20 -48 20 -12 0 -24 5 -27 10 -4 6 -3 9 2 8 4 -2 9 2 11 7 1 6 -7 11 -18
11 -16 1 -19 -3 -15 -17 5 -16 1 -19 -24 -19 l-31 0 0 58 c0 46 -3 59 -15 59
-11 0 -15 -11 -15 -39 l0 -38 -95 0 -95 0 -2 -487 c-3 -990 -3 -1460 0 -2380
l2 -942 23 -3 c20 -3 22 -9 25 -85 l3 -83 34 0 c22 0 35 -5 35 -13 0 -10 33
-13 153 -11 83 2 144 1 135 -2 -24 -7 -23 -40 2 -47 11 -3 23 -1 26 4 3 5 -1
9 -8 9 -10 0 -10 2 -1 8 10 7 10 12 0 25 -10 14 -32 17 -129 18 -64 0 -121 -1
-125 -4 -4 -3 -6 36 -3 86 l5 92 28 3 c22 3 30 -1 34 -17 3 -12 9 -21 14 -21
4 0 10 -12 12 -27 l4 -28 2 26 c1 32 14 36 139 45 l92 7 0 -92 c0 -84 1 -91
20 -91 18 0 20 7 20 88 l0 87 115 -3 c111 -4 115 -3 115 17 0 18 6 21 41 21
32 0 42 -4 46 -20 4 -16 14 -20 43 -20 20 0 58 -3 84 -6 42 -6 46 -5 46 15 0
12 6 21 15 21 11 0 15 -12 15 -47 0 -27 3 -72 6 -100 6 -43 10 -53 25 -53 16
0 19 -8 19 -60 0 -33 4 -60 10 -60 6 0 10 -16 10 -35 0 -28 4 -35 20 -35 18 0
20 8 22 93 l3 92 33 3 c26 3 35 -1 39 -16 3 -14 15 -21 39 -24 30 -4 34 -1 34
19 0 16 6 23 20 23 17 0 20 -7 21 -42 1 -25 4 -33 6 -20 4 19 10 23 36 20 28
-3 32 -7 35 -35 3 -27 7 -33 28 -33 21 0 24 -4 24 -40 0 -38 2 -40 30 -40 l30
0 0 84 c0 101 6 108 87 104 l58 -3 -3 -35 c-2 -26 0 -31 7 -20 6 8 11 23 11
32 0 20 58 31 130 26 l45 -3 3 -42 c2 -23 -1 -64 -6 -91 l-9 -49 51 0 c28 -1
41 1 29 4 -21 4 -22 11 -25 91 -3 80 -5 87 -24 90 -19 3 -22 12 -27 85 -4 45
-7 95 -7 111 l0 29 101 -6 c56 -4 103 -8 105 -9 5 -6 11 -198 5 -203 -2 -3 -6
-14 -8 -25 -2 -15 3 -20 20 -20 17 0 23 -6 23 -22 1 -124 2 -128 34 -128 l30
0 0 86 c0 47 5 95 11 106 8 16 8 19 -1 13 -9 -6 -9 -2 -1 14 8 15 9 21 1 21
-7 0 -10 24 -9 65 l2 65 129 0 c121 0 128 1 128 20 0 16 7 20 35 20 l35 0 0
-68 c0 -38 3 -130 7 -205 l6 -137 81 2 c45 1 69 4 54 6 -24 3 -27 8 -31 45
l-4 42 -1 -42 c-2 -36 -5 -43 -22 -43 -20 0 -26 26 -21 83 1 9 -2 17 -7 17
-10 0 -25 78 -23 120 1 14 4 59 7 101 l5 76 42 -1 c35 -1 43 -5 45 -23 3 -20
7 -21 51 -16 31 3 51 1 55 -6 5 -8 13 -8 26 -1 13 7 21 7 25 -1 4 -6 14 -7 24
-4 9 4 53 9 99 11 l82 3 0 -90 0 -90 -27 4 c-16 2 -29 10 -29 18 -1 8 -2 28
-3 44 -2 29 -2 29 -16 11 -17 -22 -20 -76 -6 -76 5 0 11 -10 13 -22 2 -19 8
-22 36 -20 l32 4 0 -76 c0 -74 1 -76 25 -76 23 0 24 3 27 73 l3 72 203 3 202
2 0 -45 c0 -32 -4 -45 -14 -45 -14 0 -26 -21 -26 -46 0 -10 12 -14 39 -14 38
0 39 0 43 43 2 23 2 63 0 90 l-5 47 -98 0 -99 0 0 115 0 115 30 0 c23 0 30 -4
30 -20 0 -19 7 -20 175 -20 l175 0 0 -40 c0 -27 -7 -47 -20 -60 -12 -12 -20
-33 -20 -55 l0 -35 -50 0 c-38 0 -50 -4 -50 -15 0 -12 17 -15 95 -15 l94 0 3
127 c3 144 1 141 84 128 35 -5 44 -10 44 -26 0 -10 5 -19 10 -19 6 0 10 9 10
20 0 17 7 20 45 20 l45 0 1 -62 c1 -35 5 -74 9 -88 7 -22 8 -20 10 15 1 22 1
61 0 88 -1 41 1 47 18 47 12 0 22 -9 26 -23 11 -40 6 -152 -6 -166 -11 -11
-10 -12 1 -6 9 5 12 4 7 -3 -5 -8 -40 -12 -97 -12 -82 0 -89 -2 -89 -20 0 -17
8 -19 68 -22 l67 -3 3 -72 3 -73 274 0 275 0 0 185 0 185 28 0 c16 0 32 8 40
20 10 17 23 20 77 20 l65 0 0 -205 0 -205 25 0 c29 0 27 -19 27 243 l0 168 94
-5 94 -6 0 1405 c0 772 -4 1406 -8 1409 -5 3 -49 -12 -98 -33 -49 -21 -132
-53 -184 -70 -52 -18 -98 -36 -102 -39 -4 -4 14 -18 40 -32 26 -13 77 -41 115
-61 l67 -36 -57 -41 c-108 -77 -104 -61 -29 -144 36 -40 66 -78 66 -84 0 -9
-44 -13 -167 -14 -92 0 -169 -2 -170 -4 -2 -2 37 -50 86 -107 84 -96 88 -104
67 -110 -23 -6 -124 -18 -162 -19 -16 0 -29 -14 -48 -53 -26 -53 -32 -75 -40
-151 -3 -30 -15 -49 -50 -83 l-45 -44 -43 20 c-24 11 -76 38 -115 61 l-73 41
21 -53 c12 -29 49 -133 83 -230 l61 -178 97 0 97 0 3 28 c3 25 6 27 53 27 l50
0 3 -52 c4 -70 22 -68 22 2 0 30 5 55 10 55 6 0 10 20 10 45 l0 45 65 0 65 0
0 -60 c0 -57 -1 -60 -25 -60 -22 0 -25 -4 -25 -40 l0 -40 120 0 120 0 0 -60 0
-61 -172 1 c-95 0 -201 4 -236 7 -60 6 -63 7 -58 29 6 24 6 24 -79 24 -47 0
-85 -3 -85 -7 0 -5 7 -29 14 -55 16 -50 10 -61 -30 -53 -11 2 -33 4 -51 4 -21
1 -33 7 -36 19 -3 9 -5 2 -6 -15 l-1 -33 370 0 370 0 0 -60 0 -60 -90 0 -90 0
0 -40 0 -40 89 0 88 0 6 -82 c4 -46 7 -113 7 -150 l0 -68 -40 0 c-22 0 -40 -4
-40 -10 0 -6 -55 -10 -145 -10 l-145 0 0 -40 0 -40 145 0 145 0 0 -60 0 -60
-85 0 -85 0 0 -40 0 -40 120 0 120 0 0 -60 0 -60 -570 0 -570 0 0 30 c0 29 -2
30 -45 30 l-45 0 0 55 0 55 55 0 c52 0 55 -1 55 -25 l0 -25 390 0 390 0 0 40
0 40 -180 0 -180 0 0 60 0 60 115 0 115 0 0 40 0 40 -65 0 c-58 0 -65 -2 -65
-20 0 -17 -7 -20 -49 -20 l-50 0 -6 -48 c-3 -26 -7 -54 -8 -62 -1 -8 -10 -16
-20 -18 -16 -3 -18 3 -17 50 1 29 -2 70 -5 91 -7 34 -5 37 16 38 19 1 20 2 5
6 -10 3 -23 0 -29 -6 -7 -7 -81 -11 -216 -11 -186 -1 -204 -2 -186 -16 15 -11
20 -27 20 -63 0 -27 3 -47 8 -44 4 2 7 13 7 24 0 18 9 19 183 19 l183 0 0 -60
-1 -60 -186 0 -187 0 -6 26 c-5 19 -11 24 -24 19 -9 -4 -23 -9 -30 -12 -8 -3
-10 0 -7 10 4 8 -1 17 -9 20 -12 5 -16 20 -16 57 0 27 5 50 10 50 6 0 10 50
10 130 l0 130 35 0 35 0 0 -55 0 -55 180 0 180 0 0 40 0 39 -62 3 -63 3 -3 98
-3 97 -154 0 c-99 0 -156 -4 -160 -11 -4 -6 -9 -29 -11 -52 -14 -131 -30 -209
-40 -196 -6 8 -13 20 -16 28 -3 11 -7 11 -20 -2 -15 -15 -17 -14 -28 14 -10
23 -16 27 -26 18 -9 -7 -18 -7 -31 0 -10 6 -14 11 -10 11 4 0 -1 9 -12 21 -11
12 -17 27 -15 33 3 7 -2 13 -11 13 -8 0 -15 -8 -15 -18 0 -10 -5 -21 -12 -25
-8 -5 -9 0 -6 14 4 12 2 25 -3 28 -5 3 -8 0 -7 -8 2 -7 -4 -12 -13 -12 -14 1
-16 -6 -11 -40 5 -39 5 -40 -13 -23 -13 13 -25 16 -44 11 -14 -4 -33 -7 -42
-8 -11 0 -14 -5 -10 -16 45 -98 44 -91 25 -111 -16 -17 -19 -18 -26 -4 -5 8
-16 15 -24 15 -25 0 -75 30 -68 42 10 16 -17 28 -66 28 -34 0 -48 5 -58 20
-10 17 -10 21 3 26 8 4 22 1 29 -5 11 -9 16 -9 21 -1 4 7 19 10 33 7 18 -3 31
1 44 17 14 16 17 17 12 3 -5 -14 0 -17 25 -17 l30 0 -20 34 c-24 41 -36 51
-70 60 -25 6 -44 39 -33 58 10 15 50 8 64 -12 17 -23 30 -26 30 -6 0 8 6 16
12 18 8 3 1 12 -15 22 -18 12 -27 27 -27 45 0 20 -2 23 -10 11 -6 -10 -10 -11
-10 -2 0 6 -9 12 -20 12 -16 0 -20 7 -20 35 0 39 7 43 26 18 10 -14 17 -16 31
-7 25 16 23 44 -5 78 -13 17 -21 37 -19 48 3 11 1 15 -5 12 -6 -4 -8 -1 -6 7
3 8 10 13 16 12 6 -2 10 14 8 40 -2 40 -3 42 -32 39 -34 -4 -39 -8 -48 -43 -5
-23 -2 -28 19 -33 14 -4 25 -11 25 -17 0 -6 -6 -7 -12 -2 -24 14 -38 11 -38
-8 0 -12 -10 -23 -26 -29 -32 -13 -37 -12 -29 0 3 6 1 10 -4 10 -6 0 -11 -5
-11 -11 0 -6 -7 -9 -15 -5 -26 10 -17 -27 16 -67 l30 -37 -43 0 c-41 -1 -120
-27 -88 -30 12 0 11 -3 -3 -14 -19 -15 -18 -17 31 -43 12 -6 22 -8 22 -2 0 15
47 10 64 -6 8 -8 19 -15 25 -15 6 0 11 -7 11 -15 0 -8 6 -15 14 -15 14 0 33
-37 24 -46 -10 -9 -48 29 -49 49 -1 17 -3 15 -11 -10 -11 -34 -22 -41 -33 -23
-10 16 -23 12 -30 -10 -8 -26 -21 -26 -28 0 -3 11 -9 20 -14 19 -42 -7 -62 3
-77 41 -9 22 -20 40 -26 40 -5 0 -10 7 -10 15 0 8 -9 15 -20 15 -10 0 -24 8
-29 18 -9 15 -10 15 -11 -5 0 -51 -32 -74 -45 -33 -5 15 0 26 19 41 31 24 33
44 7 58 -15 8 -20 7 -26 -7 -6 -16 -7 -16 -21 2 -19 26 -18 36 5 36 14 0 17 6
13 26 -3 16 -9 23 -19 20 -7 -3 -16 1 -19 9 -4 8 -10 12 -15 9 -5 -3 -9 0 -9
5 0 6 -12 11 -27 11 -25 0 -26 -1 -8 -14 11 -8 16 -19 12 -30 -5 -12 0 -16 21
-16 l27 0 -29 -15 c-15 -8 -37 -15 -47 -15 -10 0 -21 -4 -24 -10 -3 -6 5 -10
19 -10 28 0 43 -15 24 -23 -10 -4 -10 -7 0 -15 8 -5 14 -13 13 -18 0 -5 9 -9
19 -8 22 1 27 -21 8 -29 -10 -4 -10 -6 0 -6 6 -1 12 -10 12 -21 0 -14 7 -20
21 -20 16 0 20 -5 16 -20 -3 -13 0 -20 9 -20 11 0 14 -13 13 -54 -2 -46 -5
-55 -23 -60 -13 -3 -28 2 -41 14 -17 16 -35 20 -88 20 -62 0 -67 2 -73 25 -5
22 -11 24 -72 27 -65 3 -67 4 -70 31 -3 26 -5 27 -62 27 -55 0 -59 1 -68 29
-6 16 -8 32 -5 35 4 3 -1 6 -10 6 -14 0 -17 10 -17 48 -1 37 -3 43 -11 29 -6
-9 -8 -25 -5 -35 3 -9 1 -23 -3 -31 -8 -12 -12 -12 -24 -2 -12 9 -16 9 -20 -1
-3 -7 -5 -2 -4 12 1 17 -3 25 -15 25 -9 0 -20 3 -23 7 -4 4 -13 4 -21 1 -26
-10 -14 15 20 41 38 29 56 32 74 14 9 -9 12 -9 12 0 0 9 20 12 65 11 72 -2 84
3 65 26 -7 8 -9 15 -4 15 5 0 2 6 -7 13 -10 8 -13 20 -8 37 7 25 7 25 14 3 7
-22 36 -22 32 0 -1 7 5 11 13 10 12 -2 16 9 18 48 1 31 -2 48 -8 44 -5 -3 -10
-12 -10 -19 0 -8 -16 -17 -35 -20 -30 -6 -35 -11 -35 -34 0 -25 -19 -70 -20
-47 0 6 -5 3 -10 -5 -7 -12 -12 -12 -22 -2 -18 18 -23 15 -24 -14 -2 -32 -12
-43 -24 -24 -7 12 -12 12 -35 0 -32 -17 -40 -8 -49 55 -7 44 0 75 16 75 5 0 6
5 3 10 -4 6 -11 7 -17 4 -6 -4 -8 -1 -6 7 3 8 10 13 16 12 6 -2 9 4 6 12 -4 8
-13 15 -21 15 -8 0 -12 -4 -9 -9 14 -22 -64 -22 -90 0 -8 7 -14 6 -17 -3 -2
-7 -8 -1 -12 15 -4 15 -11 27 -16 27 -12 0 -28 42 -21 54 3 5 11 1 18 -9 11
-15 16 -16 29 -5 15 13 25 9 63 -27 7 -7 27 -13 43 -13 16 0 32 -1 36 -2 4 -2
11 8 14 22 11 47 21 70 30 70 5 0 9 8 10 18 0 10 3 12 6 5 2 -7 12 -13 20 -13
12 0 10 -5 -7 -20 -13 -11 -18 -20 -12 -20 7 0 12 -7 12 -15 0 -9 -6 -12 -17
-8 -13 5 -15 2 -10 -11 4 -10 7 -22 7 -28 0 -6 7 -4 17 3 15 13 15 12 4 -8 -6
-13 -19 -23 -29 -23 -15 -1 -14 -3 3 -16 12 -9 19 -24 17 -36 -3 -13 0 -18 8
-13 6 4 9 17 6 30 -5 19 -3 22 14 18 15 -4 20 0 20 16 0 29 28 27 42 -4 17
-38 67 -18 68 26 0 9 7 22 15 29 9 7 13 20 10 29 -6 21 5 38 30 43 13 2 19 10
17 23 -5 29 -7 29 -35 1 -17 -17 -32 -23 -48 -20 -13 2 -18 2 -11 -2 6 -3 10
-10 6 -15 -3 -5 0 -9 6 -9 6 0 4 -12 -5 -31 -11 -21 -20 -28 -28 -21 -19 14
-56 21 -63 11 -3 -5 -10 -7 -15 -4 -13 9 -11 45 3 45 6 0 9 3 5 6 -3 4 0 13 8
20 8 8 12 21 9 29 -4 10 0 12 18 8 19 -5 21 -3 11 7 -10 11 -7 18 13 37 14 12
28 23 32 23 4 0 8 9 9 20 1 11 -4 20 -12 20 -8 0 -19 8 -24 18 -8 13 -11 14
-11 2 -1 -9 -5 -5 -11 8 -5 15 -13 20 -21 16 -9 -6 -9 -9 0 -12 7 -2 12 -11
12 -19 0 -12 -7 -14 -29 -10 -19 4 -33 1 -41 -8 -7 -8 -16 -15 -21 -15 -15 0
-10 27 7 41 14 12 14 14 -3 20 -21 7 -45 1 -38 -11 3 -4 -1 -20 -9 -36 -7 -16
-20 -44 -27 -62 -14 -31 -16 -32 -63 -29 -37 3 -52 9 -58 23 -7 16 -8 16 -4
-3 3 -15 -1 -23 -9 -23 -22 0 -27 -19 -10 -36 22 -22 10 -30 -20 -14 -18 10
-22 16 -13 21 16 10 8 17 -31 29 -24 6 -31 5 -31 -5 0 -7 7 -15 15 -19 22 -8
18 -36 -5 -36 -11 0 -20 5 -20 10 0 6 -10 0 -22 -12 -14 -14 -23 -18 -26 -10
-2 7 -10 12 -18 12 -9 0 -12 5 -9 10 3 6 -5 10 -19 10 -13 0 -31 7 -39 15 -13
12 -15 12 -20 -4 -2 -10 2 -29 9 -42 7 -13 13 -32 14 -41 0 -23 -56 -18 -74 8
-8 10 -18 16 -22 12 -10 -11 -34 11 -34 32 0 10 6 23 14 29 11 10 16 8 21 -8
8 -26 25 -28 25 -3 0 9 9 23 20 30 12 7 18 17 15 22 -3 5 0 12 7 16 18 11 77
13 84 3 9 -15 34 -10 34 6 0 9 -9 15 -25 15 -16 0 -25 6 -25 16 0 8 4 12 10 9
13 -8 80 5 80 15 0 5 -10 12 -22 16 -26 8 -48 28 -48 43 0 6 -14 11 -31 11
-25 0 -28 2 -17 13 29 29 49 28 60 -3 15 -46 26 -36 20 20 -4 40 -2 50 11 50
8 0 18 -7 21 -16 9 -22 8 -24 -9 -24 -8 0 -15 -4 -15 -10 0 -8 66 -26 83 -22
14 4 7 -17 -10 -27 -10 -5 -15 -13 -10 -17 4 -4 15 0 26 10 16 15 19 15 24 1
10 -25 30 -18 23 9 -5 20 -1 25 19 28 14 3 25 2 25 -2 0 -4 10 -6 22 -5 26 2
41 35 39 93 -1 39 1 42 25 42 23 0 24 2 10 15 -11 12 -21 13 -41 5 -14 -5 -23
-14 -20 -20 3 -5 1 -10 -4 -10 -15 0 -14 -30 2 -30 7 0 4 -7 -7 -15 -17 -13
-18 -15 -3 -15 9 0 17 -7 17 -15 0 -15 -12 -20 -23 -9 -8 8 -122 8 -135 0 -14
-9 -28 15 -30 51 -3 44 -24 94 -29 71 -3 -10 -9 -18 -14 -18 -15 0 -10 -30 6
-36 8 -4 15 -11 15 -17 0 -5 -9 -2 -19 7 -16 14 -23 15 -41 6 -18 -10 -25 -9
-38 4 -15 15 -14 16 15 16 33 0 49 13 38 30 -5 8 -11 7 -20 0 -8 -6 -27 -10
-42 -8 -24 3 -28 0 -28 -22 0 -20 -5 -25 -22 -23 -13 2 -23 -2 -23 -8 0 -5 -5
-7 -12 -3 -8 5 -7 10 4 18 16 12 31 56 18 56 -14 0 -63 -28 -71 -42 -5 -8 -9
6 -9 35 l0 48 -32 -6 c-18 -4 -45 -9 -60 -12 -17 -3 -28 -1 -28 6 0 6 -7 11
-15 11 -14 0 -19 -11 -16 -37 4 -27 -18 -11 -24 18 -6 25 -3 34 14 45 12 9 21
24 21 35 0 18 -6 20 -37 18 -21 -2 -41 -8 -45 -14 -4 -5 -8 2 -8 18 0 19 -5
27 -17 28 -50 3 -77 9 -86 18 -13 13 -2 40 20 47 10 3 34 13 53 22 19 10 50
17 67 17 18 0 35 5 37 12 4 8 24 13 57 13 53 0 60 11 11 18 -15 2 -28 7 -30
13 -2 5 -10 9 -18 9 -8 0 -14 4 -14 10 0 5 -8 9 -17 7 -10 -1 -20 2 -23 8 -3
6 10 9 33 7 32 -3 37 -1 37 17 0 28 -14 33 -33 11 -9 -11 -23 -17 -31 -14 -17
7 -10 34 9 34 7 0 20 10 29 23 10 14 14 16 10 5 -5 -14 0 -18 21 -18 20 0 26
-4 21 -15 -4 -10 1 -15 14 -15 11 0 20 6 20 13 0 8 4 7 10 -3 14 -22 12 -27
-12 -35 -22 -7 -22 -7 -3 -12 11 -3 23 -9 26 -14 3 -5 20 -2 37 7 34 16 52 12
52 -12 0 -8 5 -14 11 -14 6 0 9 9 6 20 -4 16 0 20 17 20 18 0 26 9 36 40 13
40 30 54 30 24 0 -9 6 -14 13 -11 6 2 11 10 9 16 -1 6 3 11 8 11 6 0 9 -12 8
-26 -2 -16 3 -29 11 -32 11 -4 13 2 8 26 -5 26 -3 31 16 34 15 2 26 14 34 38
11 31 18 27 14 -7 -1 -8 9 -13 23 -13 14 0 28 -4 31 -10 9 -15 35 -12 35 5 0
10 12 14 46 13 37 0 44 -3 40 -17 -5 -14 -5 -14 7 -1 18 22 38 23 30 2 -6 -16
-5 -16 14 1 12 10 31 17 44 16 50 -4 71 1 76 20 3 11 11 17 18 15 7 -3 24 0
37 7 13 7 26 13 30 14 4 0 13 6 19 13 7 6 19 12 25 12 7 0 16 10 20 23 4 12
12 25 18 29 7 5 6 8 -4 8 -18 0 -43 37 -35 50 4 6 13 10 21 10 17 0 18 12 2
28 -17 17 -51 16 -45 -2 12 -30 -8 -25 -23 6 -12 25 -24 34 -58 43 -36 8 -46
16 -58 44 -8 18 -14 49 -14 68 0 34 1 35 35 31 19 -2 35 -2 35 0 0 1 -7 17
-17 35 -14 28 -19 57 -22 130 -1 9 -5 17 -11 17 -5 0 -10 -8 -10 -17 -1 -17
-1 -17 -14 0 -12 15 -14 12 -20 -34 -5 -33 -11 -49 -19 -46 -13 4 -13 17 -1
56 6 20 4 23 -9 18 -10 -4 -17 -1 -17 6 0 7 -11 34 -25 61 -26 51 -32 86 -15
86 6 0 10 7 10 16 0 9 -6 14 -14 11 -7 -3 -25 6 -40 19 -14 14 -32 24 -39 23
-20 -3 -47 12 -47 27 0 8 -6 14 -14 14 -10 0 -17 17 -21 56 -9 67 -24 86 -70
84 -14 -1 -65 32 -65 41 0 23 42 70 58 64 8 -3 19 -1 22 6 5 7 14 3 29 -12
l21 -23 -32 -10 c-17 -6 -33 -17 -36 -23 -6 -21 29 -27 58 -10 27 16 28 16 34
-6 6 -22 7 -22 21 -3 8 11 15 30 15 43 0 18 6 23 25 23 14 0 25 5 25 11 0 5 8
9 18 7 27 -4 82 34 82 57 0 15 2 17 9 6 13 -20 51 -4 51 22 0 62 12 97 36 103
14 4 27 16 30 30 6 21 34 35 34 17 0 -10 114 -9 158 1 20 5 32 14 33 24 1 9 6
3 11 -15 7 -20 19 -34 34 -37 13 -4 24 -11 24 -17 0 -8 4 -8 13 -1 8 7 16 6
24 -3 10 -10 9 -14 -3 -19 -12 -5 -13 -10 -4 -27 7 -12 17 -18 27 -15 9 4 17
-1 20 -13 6 -24 40 -34 47 -14 3 8 6 40 6 70 0 49 -4 59 -30 84 -17 16 -41 29
-55 29 -14 0 -25 3 -25 8 0 4 -11 12 -24 18 -18 9 -25 8 -33 -5 -16 -25 -28
-4 -28 50 0 40 -3 49 -17 49 -15 0 -18 9 -18 58 0 62 -12 96 -24 67 -3 -9 -6
-41 -6 -71 l0 -54 -35 0 c-21 0 -35 -5 -35 -12 0 -10 -3 -9 -9 1 -7 11 -9 11
-14 0 -3 -8 -6 24 -7 71 -1 47 -3 90 -4 95 -2 18 -21 41 -38 48 -14 5 -18 18
-18 54 -1 26 -3 65 -6 86 -5 36 -5 37 26 37 18 0 29 4 25 10 -3 6 -26 10 -51
10 -28 0 -43 4 -39 10 3 6 5 9 3 9 -2 -1 -15 -4 -30 -6z m-1408 -505 c0 -9 4
-8 10 2 8 13 10 12 10 -2 0 -22 -23 -23 -40 -3 -10 12 -10 15 4 15 9 0 16 -6
16 -12z m65 2 c3 -5 1 -10 -4 -10 -6 0 -11 5 -11 10 0 6 2 10 4 10 3 0 8 -4
11 -10z m1185 -4 c0 -3 -4 -8 -10 -11 -5 -3 -10 -1 -10 4 0 6 5 11 10 11 6 0
10 -2 10 -4z m-8 -44 c-7 -2 -12 -10 -12 -18 0 -8 -4 -14 -10 -14 -5 0 -10 6
-10 13 0 19 21 37 34 30 6 -4 6 -8 -2 -11z m-1714 1 c-10 -2 -18 -13 -18 -24
0 -26 -15 -24 -34 6 l-16 25 42 -1 c24 -1 35 -3 26 -6z m59 1 c-3 -3 -12 -4
-19 -1 -8 3 -5 6 6 6 11 1 17 -2 13 -5z m50 -28 c-3 -8 1 -17 9 -20 10 -4 14
0 12 12 -2 11 4 18 18 20 17 2 23 -4 28 -29 11 -57 7 -99 -9 -99 -8 0 -15 -5
-15 -11 0 -5 -11 1 -24 15 -24 27 -43 35 -29 14 4 -7 9 -21 10 -32 3 -17 2
-17 -19 -4 -13 9 -23 22 -23 29 0 10 -15 15 -47 17 -34 2 -48 7 -48 18 0 8 10
14 25 14 20 0 25 5 25 26 0 25 1 26 24 11 26 -17 49 -6 39 19 -3 9 2 14 12 14
11 0 15 -5 12 -14z m166 -88 c9 2 17 -2 17 -8 0 -5 -5 -10 -11 -10 -7 0 -8
-12 -4 -32 l6 -33 -25 41 c-17 28 -23 48 -19 65 l7 24 6 -25 c4 -16 12 -24 23
-22z m-293 -40 c0 -5 -7 -8 -15 -8 -15 0 -20 21 -8 33 7 7 23 -11 23 -25z
m100 -57 c6 -11 6 -22 1 -25 -5 -3 -11 5 -13 19 -6 30 -2 32 12 6z m227 -21
c6 0 16 7 23 15 10 12 16 13 27 4 8 -7 12 -18 9 -26 -3 -7 -1 -25 5 -40 8 -22
7 -24 -5 -14 -11 9 -15 9 -20 -1 -3 -7 -5 -1 -3 13 2 16 -1 26 -10 26 -7 0
-13 -6 -13 -14 0 -7 -9 -13 -20 -13 -11 0 -20 4 -20 9 0 5 -3 24 -6 42 -5 31
-4 32 9 17 8 -10 19 -18 24 -18z m-318 -12 c-1 -13 2 -31 6 -40 8 -19 -2 -23
-23 -10 -8 6 -10 19 -6 40 7 36 24 44 23 10z m268 3 c0 -11 -5 -17 -9 -15 -11
7 -10 34 1 34 6 0 9 -9 8 -19z m740 -27 c-3 -3 -12 -4 -19 -1 -8 3 -5 6 6 6
11 1 17 -2 13 -5z m-1030 -54 c22 0 9 -25 -14 -28 -18 -3 -21 2 -20 34 1 32 2
34 11 15 5 -11 15 -21 23 -21z m116 27 c3 -8 1 -20 -4 -28 -6 -10 -9 -10 -9
-1 0 6 -7 12 -15 12 -8 0 -15 7 -15 15 0 19 36 20 43 2z m95 -5 c6 -18 -15
-14 -22 4 -4 10 -1 14 6 12 6 -2 14 -10 16 -16z m32 6 c0 6 9 12 20 12 11 0
20 -7 20 -15 0 -10 -10 -15 -30 -15 -22 0 -30 5 -30 18 0 14 2 15 10 2 6 -10
10 -11 10 -2z m70 -33 c0 -8 -2 -15 -4 -15 -2 0 -6 7 -10 15 -3 8 -1 15 4 15
6 0 10 -7 10 -15z m-330 -39 c0 -3 -4 -8 -10 -11 -5 -3 -10 -1 -10 4 0 6 5 11
10 11 6 0 10 -2 10 -4z m523 -23 c-7 -2 -19 -2 -25 0 -7 3 -2 5 12 5 14 0 19
-2 13 -5z m75 0 c-10 -2 -26 -2 -35 0 -10 3 -2 5 17 5 19 0 27 -2 18 -5z m-64
-48 c4 -22 13 -35 22 -35 20 0 13 -24 -8 -28 -9 -2 -31 4 -49 12 -32 13 -32
14 -9 15 24 1 26 4 22 36 -2 19 0 35 6 35 5 0 13 -16 16 -35z m86 15 c0 -5 -9
-8 -20 -7 -22 1 -27 13 -7 20 14 5 27 -1 27 -13z m-180 -5 c0 -8 -3 -15 -7
-16 -5 0 -18 -2 -30 -3 -13 -2 -23 3 -23 10 0 11 9 15 53 23 4 0 7 -6 7 -14z
m27 -7 c-3 -8 -6 -5 -6 6 -1 11 2 17 5 13 3 -3 4 -12 1 -19z m-85 -50 c10 1
20 -9 27 -29 15 -43 14 -45 -8 -18 -15 18 -27 23 -60 21 -26 -2 -41 1 -41 9 0
6 -7 9 -15 5 -8 -3 -15 -1 -15 4 0 6 9 10 21 10 14 0 24 10 31 32 l11 31 16
-34 c10 -21 23 -33 33 -31z m196 27 c-3 -3 -9 2 -12 12 -6 14 -5 15 5 6 7 -7
10 -15 7 -18z m-461 -37 c-3 -8 -6 -5 -6 6 -1 11 2 17 5 13 3 -3 4 -12 1 -19z
m73 -20 l-1 -33 -19 24 c-21 24 -19 41 6 41 9 0 14 -11 14 -32z m880 12 c-10
-6 -11 -10 -3 -10 15 0 53 -31 53 -42 0 -5 -11 -8 -25 -8 -14 0 -25 5 -25 12
0 9 -3 9 -12 0 -17 -17 -29 -15 -22 3 4 8 13 15 22 15 13 0 12 3 -3 20 -18 19
-17 20 6 20 19 0 21 -2 9 -10z m-200 -39 c0 -11 -58 -69 -82 -82 -14 -8 -19
-3 -27 28 -18 62 -17 63 49 63 33 0 60 -4 60 -9z m50 -11 c0 -11 -7 -20 -15
-20 -8 0 -15 9 -15 20 0 11 7 20 15 20 8 0 15 -9 15 -20z m43 6 c12 -9 14 -16
7 -21 -5 -3 -8 -11 -5 -16 9 -13 -5 -50 -16 -44 -5 4 -7 18 -4 32 2 14 0 34
-6 44 -11 22 -1 24 24 5z m-458 -45 c-8 -39 -20 -39 -40 -2 -15 29 -14 30 13
33 35 4 35 5 27 -31z m90 29 c4 -6 11 -7 17 -4 6 4 8 3 5 -2 -3 -6 -2 -16 4
-24 6 -11 9 -8 9 13 0 44 16 31 38 -33 l20 -60 -42 0 c-65 0 -103 17 -111 48
-3 15 -8 35 -12 46 -3 12 -1 17 8 14 8 -3 17 -20 20 -39 6 -34 6 -34 8 9 1 29
5 42 15 42 8 0 18 -5 21 -10z m155 -38 c0 -29 -24 -54 -44 -46 -11 4 -15 18
-14 44 1 31 4 36 20 32 11 -2 18 1 18 9 0 25 20 -14 20 -39z m170 8 c0 -5 -7
-10 -15 -10 -8 0 -15 5 -15 10 0 6 7 10 15 10 8 0 15 -4 15 -10z m137 -10 c1
-11 0 -20 -2 -20 -2 0 -9 9 -15 20 -8 15 -8 20 3 20 7 0 13 -9 14 -20z m-1020
-12 c-3 -8 -6 -5 -6 6 -1 11 2 17 5 13 3 -3 4 -12 1 -19z m123 -8 c-6 -11 -15
-20 -20 -20 -14 0 -12 6 6 24 21 22 27 20 14 -4z m870 -5 c0 -15 -6 -25 -14
-25 -11 0 -12 5 -3 25 15 31 17 31 17 0z m-566 -2 c11 -43 17 -83 11 -83 -27
0 -45 24 -45 60 0 42 24 58 34 23z m-48 -30 c1 -25 -3 -32 -22 -36 -21 -4 -24
-1 -18 17 3 11 8 29 11 39 7 28 27 14 29 -20z m115 -33 c4 -3 41 -4 81 -3 81
2 98 -6 98 -48 0 -22 -5 -29 -19 -29 -11 0 -26 -7 -34 -15 -14 -13 -16 -10
-22 25 -9 52 -21 58 -29 15 -9 -45 -21 -44 -36 1 -7 19 -14 33 -16 31 -3 -2 0
-16 6 -31 5 -15 7 -32 4 -37 -10 -17 -33 11 -40 49 -4 19 -13 47 -20 61 -8 14
-14 31 -14 36 1 6 8 -3 17 -20 9 -16 19 -32 24 -35z m549 29 c0 -5 -4 -9 -8
-9 -5 0 -9 7 -9 15 0 8 4 12 9 9 4 -3 8 -9 8 -15z m-200 -20 c0 -15 -4 -31
-10 -34 -5 -3 -10 0 -10 7 0 10 -2 10 -9 -1 -10 -15 -41 -8 -41 9 0 5 9 10 20
10 13 0 20 7 20 18 0 10 7 19 15 19 10 0 15 -10 15 -28z m112 13 c6 -6 12 -24
13 -39 1 -15 5 -35 8 -43 6 -11 0 -15 -23 -16 -16 -1 -30 3 -30 8 0 5 5 6 10
3 6 -3 10 -1 10 4 0 6 -4 11 -8 11 -4 0 -6 16 -4 36 6 48 -21 42 -28 -7 -7
-47 -70 -78 -70 -33 0 8 9 14 21 14 19 0 21 4 15 38 l-6 38 40 -1 c22 0 45 -6
52 -13z m165 -32 c26 -12 29 -16 17 -25 -16 -11 -10 -45 8 -45 6 0 8 7 4 15
-8 22 11 19 23 -4 12 -21 5 -31 -21 -31 -11 0 -16 -5 -13 -10 4 -6 10 -8 15
-5 9 6 25 -33 17 -42 -8 -8 -67 39 -61 49 3 4 0 8 -5 8 -6 0 -12 10 -12 23 -1
17 -2 18 -6 4 -3 -13 -10 -16 -26 -11 -12 4 -30 8 -39 8 -10 0 -18 4 -18 8 0
8 3 9 50 11 23 2 25 6 23 42 -2 22 1 35 5 29 4 -6 21 -17 39 -24z m57 15 c3
-8 1 -15 -4 -15 -6 0 -10 7 -10 15 0 8 2 15 4 15 2 0 6 -7 10 -15z m23 -27
c-3 -8 -6 -5 -6 6 -1 11 2 17 5 13 3 -3 4 -12 1 -19z m-469 -19 c5 -27 -36
-79 -63 -79 -14 0 -25 5 -25 10 0 6 9 10 20 10 26 0 39 27 30 61 -8 25 -6 27
13 20 12 -5 23 -14 25 -22z m46 5 c9 -3 16 -17 16 -30 0 -13 5 -24 10 -24 6 0
10 -6 10 -12 -1 -14 -60 51 -60 64 0 10 4 10 24 2z m1040 -33 c-6 -6 -24 19
-24 34 1 6 7 1 15 -9 8 -11 12 -22 9 -25z m-1817 -33 c-3 -8 -6 -5 -6 6 -1 11
2 17 5 13 3 -3 4 -12 1 -19z m-40 -20 c-3 -7 -5 -2 -5 12 0 14 2 19 5 13 2 -7
2 -19 0 -25z m467 -3 c19 -29 21 -66 4 -83 -20 -20 -28 -14 -28 20 0 17 -7 39
-16 49 -17 19 -12 39 10 39 8 0 21 -11 30 -25z m306 15 c0 -5 -5 -10 -11 -10
-5 0 -7 5 -4 10 3 6 8 10 11 10 2 0 4 -4 4 -10z m-707 -15 c4 -8 2 -17 -3 -20
-6 -4 -10 3 -10 14 0 25 6 27 13 6z m1059 -10 c5 -23 2 -25 -29 -25 -21 0 -32
4 -28 10 4 6 11 8 16 5 5 -4 9 3 9 14 0 30 27 26 32 -4z m-847 -13 c6 2 11 -7
13 -19 3 -17 -1 -20 -16 -16 -11 3 -23 14 -26 26 -6 26 5 47 14 23 3 -10 10
-16 15 -14z m-47 1 c0 -10 -2 -29 -4 -43 l-6 -25 -18 23 c-10 12 -24 22 -31
22 -18 0 23 39 42 39 9 1 16 -7 17 -16z m164 -15 c-5 -32 -5 -32 -15 -10 -8
18 -7 26 4 33 8 5 14 9 15 9 0 0 -2 -15 -4 -32z m-56 -15 c-11 -11 -19 6 -11
24 8 17 8 17 12 0 3 -10 2 -21 -1 -24z m1018 22 c3 -8 1 -15 -4 -15 -6 0 -10
7 -10 15 0 8 2 15 4 15 2 0 6 -7 10 -15z m-44 -5 c0 -5 -7 -7 -15 -4 -8 4 -15
8 -15 10 0 2 7 4 15 4 8 0 15 -4 15 -10z m-366 -15 c-4 -8 -10 -15 -14 -15 -4
0 -13 7 -20 15 -11 13 -8 15 13 15 19 0 25 -4 21 -15z m92 2 c4 -3 -6 -9 -20
-13 -22 -5 -24 -9 -15 -21 10 -11 9 -18 -4 -31 -16 -15 -17 -14 -17 15 0 18
-4 35 -10 38 -5 3 -10 10 -10 15 0 9 67 7 76 -3z m-316 -7 c0 -5 -2 -10 -4
-10 -3 0 -8 5 -11 10 -3 6 -1 10 4 10 6 0 11 -4 11 -10z m-180 -33 c0 -5 -4
-5 -10 -2 -5 3 -10 14 -10 23 0 15 2 15 10 2 5 -8 10 -19 10 -23z m555 11 c4
-13 6 -27 6 -32 -1 -5 4 -13 11 -18 9 -6 7 -8 -7 -5 -11 2 -19 9 -17 16 2 9
-3 11 -13 8 -17 -7 -21 8 -4 18 6 4 8 13 5 21 -3 8 -2 14 3 14 5 0 12 -10 16
-22z m84 -18 c15 0 27 -12 50 -49 15 -24 33 -2 25 31 -6 28 -4 30 15 25 14 -3
21 0 21 10 0 8 6 13 13 10 6 -2 11 -10 9 -17 -1 -7 4 -9 15 -6 27 8 41 -5 45
-44 3 -30 5 -32 13 -15 5 11 13 23 19 27 7 5 4 8 -6 8 -10 0 -18 5 -18 10 0 6
5 10 10 10 6 0 11 8 11 18 1 15 2 14 6 -2 4 -14 7 -16 13 -6 7 11 11 10 23 -2
13 -13 13 -16 -4 -26 -23 -15 -25 -34 -3 -25 12 4 15 1 12 -12 -2 -12 -17 -22
-38 -28 -34 -9 -34 -10 -12 -20 27 -12 29 -33 4 -41 -26 -9 -46 -49 -39 -81 4
-26 3 -27 -27 -21 -17 4 -33 11 -34 16 -2 6 -8 8 -12 5 -5 -3 -11 -1 -15 5 -4
6 4 10 19 10 29 0 44 18 22 26 -9 3 -13 10 -10 15 3 6 0 16 -6 24 -9 11 -9 18
0 32 10 16 11 16 6 1 -3 -10 -1 -20 4 -23 6 -4 10 -2 10 4 0 6 7 8 15 5 19 -8
20 29 1 71 -11 25 -15 27 -21 13 -3 -9 -13 -14 -21 -11 -9 3 -14 -2 -14 -17 0
-17 -4 -20 -20 -15 -11 3 -20 2 -20 -3 0 -6 -9 -8 -20 -5 -18 5 -25 20 -21 50
1 7 -7 9 -19 6 -14 -4 -22 1 -29 18 -4 13 -6 31 -2 39 4 12 6 12 9 -2 2 -10
11 -18 21 -18z m-444 10 c3 -5 -3 -10 -14 -10 -12 0 -21 5 -21 10 0 6 6 10 14
10 8 0 18 -4 21 -10z m205 0 c0 -5 -2 -10 -4 -10 -3 0 -8 5 -11 10 -3 6 -1 10
4 10 6 0 11 -4 11 -10z m-300 -35 c8 -19 17 -35 22 -35 4 0 8 -5 8 -12 0 -6
-9 -3 -20 7 -11 10 -20 24 -20 32 0 7 -4 13 -9 13 -5 0 -11 7 -15 15 -3 9 0
15 7 15 7 0 19 -16 27 -35z m30 25 c0 -5 -4 -10 -10 -10 -5 0 -10 5 -10 10 0
6 5 10 10 10 6 0 10 -4 10 -10z m-422 -19 c3 -10 0 -12 -12 -8 -10 4 -22 7
-27 7 -5 0 -9 4 -9 9 0 14 43 7 48 -8z m277 -2 c11 -17 -1 -21 -15 -4 -8 9 -8
15 -2 15 6 0 14 -5 17 -11z m32 -41 c-3 -8 -6 -5 -6 6 -1 11 2 17 5 13 3 -3 4
-12 1 -19z m173 -23 c0 -13 -4 -27 -10 -30 -10 -6 -12 0 -12 35 0 29 1 32 12
25 6 -3 10 -17 10 -30z m30 5 c0 -11 -2 -20 -4 -20 -2 0 -6 9 -9 20 -3 11 -1
20 4 20 5 0 9 -9 9 -20z m43 0 c-3 -11 -7 -20 -8 -20 -1 0 -5 9 -8 20 -3 12 0
20 8 20 8 0 11 -8 8 -20z m365 -15 c2 -28 2 -29 -12 -11 -9 11 -22 16 -31 13
-17 -7 -18 -5 -9 16 3 8 15 14 27 13 17 -1 23 -8 25 -31z m402 4 c0 -5 -4 -9
-10 -9 -5 0 -10 7 -10 16 0 8 5 12 10 9 6 -3 10 -10 10 -16z m-287 -43 c-7
-39 -11 -42 -25 -28 -8 8 -8 15 2 27 11 13 7 15 -26 15 -48 0 -30 15 20 16 34
0 35 -1 29 -30z m-501 -5 c3 -21 1 -28 -9 -24 -7 3 -12 16 -11 29 3 33 15 30
20 -5z m305 13 c-3 -3 -12 -4 -19 -1 -8 3 -5 6 6 6 11 1 17 -2 13 -5z m113
-20 c0 -10 -6 -14 -14 -11 -15 6 -46 -22 -46 -41 0 -7 -4 -12 -10 -12 -17 0
-11 27 13 54 25 29 57 34 57 10z m280 -39 c0 -8 -4 -15 -10 -15 -5 0 -10 7
-10 15 0 8 5 15 10 15 6 0 10 -7 10 -15z m-390 -4 c0 -6 -4 -13 -10 -16 -5 -3
-10 1 -10 9 0 9 5 16 10 16 6 0 10 -4 10 -9z m-180 -5 c0 -15 -14 -35 -21 -30
-15 9 -10 34 6 34 8 0 15 -2 15 -4z m-389 -19 c-1 -12 -15 -9 -19 4 -3 6 1 10
8 8 6 -3 11 -8 11 -12z m943 -6 c3 -5 15 -7 26 -4 14 4 20 0 20 -12 0 -12 -5
-15 -17 -10 -10 4 -28 10 -40 12 -13 3 -20 9 -17 14 7 12 21 11 28 0z m-604
-11 c0 -5 -7 -10 -15 -10 -8 0 -15 5 -15 10 0 6 7 10 15 10 8 0 15 -4 15 -10z
m711 1 c6 10 9 8 9 -8 0 -14 10 -28 26 -36 l27 -14 -31 -11 c-36 -12 -45 -7
-31 19 7 15 6 19 -6 19 -9 0 -15 9 -14 23 0 12 3 16 6 8 5 -11 7 -11 14 0z
m-1002 -66 l0 -20 -9 20 c-5 11 -9 27 -9 35 -1 13 0 13 9 0 5 -8 9 -24 9 -35z
m769 10 c0 -13 -4 -22 -9 -19 -5 3 -9 14 -9 25 0 10 4 19 9 19 5 0 9 -11 9
-25z m-88 -11 c0 -8 -4 -14 -10 -14 -5 0 -10 9 -10 21 0 11 5 17 10 14 6 -3
10 -13 10 -21z m180 16 c0 -5 7 -10 16 -10 13 0 11 -5 -7 -25 -32 -33 -36 -31
-31 10 2 19 8 35 13 35 5 0 9 -4 9 -10z m120 -20 c0 -11 -4 -20 -10 -20 -5 0
-10 9 -10 20 0 11 5 20 10 20 6 0 10 -9 10 -20z m-1151 -31 c-9 -5 -15 -4 -18
2 -2 6 3 15 10 20 9 5 15 4 18 -2 2 -6 -3 -15 -10 -20z m211 0 c0 -6 -4 -7
-10 -4 -5 3 -10 11 -10 16 0 6 5 7 10 4 6 -3 10 -11 10 -16z m529 -15 c2 -2
-3 -12 -12 -22 -10 -10 -14 -22 -10 -25 12 -12 -13 -7 -31 6 -13 10 -16 20
-11 36 6 19 12 22 33 16 15 -4 29 -8 31 -11z m-79 -9 c0 -8 -4 -15 -9 -15 -5
0 -12 -8 -14 -17 -3 -10 -5 -3 -6 15 -1 22 4 32 14 32 8 0 15 -7 15 -15z
m-370 -5 c0 -5 -5 -10 -11 -10 -5 0 -7 5 -4 10 3 6 8 10 11 10 2 0 4 -4 4 -10z
m524 -5 c-4 -8 -10 -15 -15 -15 -5 0 -9 7 -9 15 0 8 7 15 15 15 9 0 12 -6 9
-15z m-40 -36 c-3 -5 1 -9 8 -9 9 0 8 -4 -3 -15 -17 -18 -49 -10 -49 11 0 8 6
23 13 34 11 19 13 19 24 4 7 -9 10 -21 7 -25z m486 27 c0 -3 -4 -8 -10 -11 -5
-3 -10 -1 -10 4 0 6 5 11 10 11 6 0 10 -2 10 -4z m-240 -10 c0 -3 -4 -8 -10
-11 -5 -3 -10 -1 -10 4 0 6 5 11 10 11 6 0 10 -2 10 -4z m-503 -38 c-3 -8 -6
-5 -6 6 -1 11 2 17 5 13 3 -3 4 -12 1 -19z m59 4 c-8 -8 -19 -11 -25 -7 -16 9
-4 24 19 22 17 -1 18 -3 6 -15z m124 -2 c-20 -13 -33 -13 -25 0 3 6 14 10 23
10 15 0 15 -2 2 -10z m426 -37 c-14 -14 -23 4 -13 27 l10 25 5 -23 c2 -13 1
-26 -2 -29z m-51 -3 c3 -5 1 -10 -4 -10 -6 0 -11 5 -11 10 0 6 2 10 4 10 3 0
8 -4 11 -10z m-325 -78 c0 -13 -4 -20 -10 -17 -5 3 -10 21 -10 38 0 24 3 28
10 17 5 -8 10 -25 10 -38z m290 8 c0 -5 -4 -10 -10 -10 -5 0 -10 5 -10 10 0 6
5 10 10 10 6 0 10 -4 10 -10z m-330 -17 c0 -5 -5 -15 -10 -23 -7 -11 -12 -12
-21 -3 -6 6 -8 16 -5 22 8 12 36 15 36 4z m-53 -65 c-3 -8 -6 -5 -6 6 -1 11 2
17 5 13 3 -3 4 -12 1 -19z m63 12 c0 -5 -2 -10 -4 -10 -2 0 -11 -2 -19 -5 -8
-4 -14 0 -14 10 0 8 9 15 19 15 10 0 18 -4 18 -10z m3550 -100 l0 -60 -35 0
-35 0 0 60 0 60 35 0 35 0 0 -60z m0 -210 l0 -60 -64 0 -64 0 -4 60 -3 60 68
0 67 0 0 -60z m-3493 34 c-3 -3 -12 -4 -19 -1 -8 3 -5 6 6 6 11 1 17 -2 13 -5z
m-492 -42 c-6 -16 -7 -16 -17 2 -8 14 -7 21 3 27 17 10 24 -4 14 -29z m668
-17 c-1 -5 -10 -12 -20 -16 -14 -5 -19 -2 -19 13 0 13 6 18 21 16 11 -2 19 -7
18 -13z m-634 -41 c-9 -11 -15 -12 -23 -4 -8 8 -6 15 9 26 23 17 34 2 14 -22z
m59 4 c2 -9 -4 -18 -13 -21 -11 -5 -15 0 -15 19 0 28 23 29 28 2z m-8 -54 c0
-11 6 -15 20 -11 12 3 20 0 20 -7 0 -20 -12 -27 -27 -15 -10 9 -17 8 -28 -1
-22 -18 -30 -5 -17 25 13 28 32 33 32 9z m-520 -13 c0 -10 -7 -24 -15 -31 -13
-11 -15 -8 -15 19 0 21 5 31 15 31 8 0 15 -8 15 -19z m615 -19 c-3 -3 -11 0
-18 7 -9 10 -8 11 6 5 10 -3 15 -9 12 -12z m3735 -52 l0 -60 -95 0 -95 0 0 60
0 60 95 0 95 0 0 -60z m-4310 30 c0 -11 -4 -20 -9 -20 -5 0 -7 9 -4 20 3 11 7
20 9 20 2 0 4 -9 4 -20z m1770 -92 l-1 -33 -14 25 c-18 32 -18 40 0 40 10 0
15 -10 15 -32z m-526 7 c3 -9 0 -15 -8 -15 -7 0 -19 7 -26 15 -10 12 -9 15 8
15 11 0 22 -7 26 -15z m456 -25 c0 -5 -11 -3 -24 3 -16 8 -20 14 -13 19 12 7
37 -8 37 -22z m-641 -82 c9 -25 6 -38 -10 -38 -11 0 -29 41 -22 53 8 14 24 7
32 -15z m3321 -38 l0 -60 -65 0 -65 0 0 60 0 60 65 0 65 0 0 -60z m-2790 -10
c3 -1 8 -2 13 -1 11 2 9 -17 -3 -24 -5 -3 -10 -1 -10 4 0 6 -9 11 -20 11 -11
0 -20 4 -20 9 0 8 21 8 40 1z m-10 -30 c0 -5 -7 -7 -15 -4 -8 4 -15 8 -15 10
0 2 7 4 15 4 8 0 15 -4 15 -10z m-290 -47 c0 -14 -6 -23 -15 -23 -17 0 -35 38
-28 57 8 20 43 -8 43 -34z m111 38 c6 10 9 5 9 -15 0 -16 7 -34 16 -41 13 -9
14 -16 6 -31 -6 -10 -12 -13 -12 -6 0 7 -8 12 -17 10 -14 -2 -18 6 -20 47 -1
28 0 44 3 36 5 -11 8 -11 15 0z m-55 -35 c12 -48 -18 -58 -35 -12 -5 13 -4 24
3 28 19 13 25 9 32 -16z m-323 -23 c-7 -2 -21 -2 -30 0 -10 3 -4 5 12 5 17 0
24 -2 18 -5z m-123 -17 c0 -18 -27 -29 -36 -14 -4 5 0 14 7 19 20 13 29 11 29
-5z m270 -21 l0 -36 -21 20 c-23 21 -20 51 6 51 11 0 15 -10 15 -35z m-167
-41 c-8 -22 -23 -6 -23 24 1 25 2 26 15 9 7 -11 11 -25 8 -33z m115 -12 c-2
-9 -13 -18 -25 -20 -27 -4 -35 24 -15 56 l15 23 14 -21 c8 -11 13 -28 11 -38z
m-368 29 c0 -5 3 -18 7 -28 3 -10 3 -15 -2 -11 -4 4 -14 0 -20 -9 -12 -16 -15
-16 -41 2 -28 19 -28 20 -7 23 12 2 27 10 33 18 14 16 30 19 30 5z m130 -11
c0 -5 -4 -10 -10 -10 -5 0 -10 5 -10 10 0 6 5 10 10 10 6 0 10 -4 10 -10z
m360 0 c12 -8 9 -10 -13 -10 -16 0 -26 4 -22 10 8 12 16 12 35 0z m336 -36 c0
-23 4 -48 7 -57 5 -14 -1 -17 -43 -17 -45 0 -50 2 -50 23 0 12 -3 32 -6 45 -5
17 -2 22 14 22 11 0 25 7 32 15 24 28 45 13 46 -31z m-725 -27 c-8 -8 -14 -8
-22 0 -7 7 -5 16 8 28 17 18 18 18 21 1 2 -10 -1 -23 -7 -29z m-41 17 c0 -2
-7 -4 -15 -4 -8 0 -15 4 -15 10 0 5 7 7 15 4 8 -4 15 -8 15 -10z m594 -10 c3
-9 4 -20 0 -25 -3 -5 0 -9 5 -9 6 0 11 11 11 25 0 19 5 25 21 25 11 0 18 -4
15 -8 -3 -5 2 -21 10 -36 21 -42 18 -46 -28 -46 -37 0 -46 5 -65 33 -13 18
-23 36 -23 39 0 6 17 12 41 17 4 0 10 -6 13 -15z m-74 -36 c0 -7 3 -23 6 -35
5 -19 2 -23 -16 -23 -16 0 -20 4 -16 16 3 9 6 24 6 35 0 10 5 19 10 19 6 0 10
-6 10 -12z m-476 -13 c3 -8 13 -15 22 -15 10 0 14 5 10 15 -3 9 0 15 8 15 9 0
12 -7 9 -20 -4 -16 -13 -19 -47 -17 -35 2 -42 5 -38 20 5 21 28 22 36 2z m116
-6 c0 -31 -27 -54 -45 -39 -16 13 -20 42 -8 53 3 4 17 7 30 7 17 0 23 -6 23
-21z m308 -24 c-3 -3 -9 2 -12 12 -6 14 -5 15 5 6 7 -7 10 -15 7 -18z m-55 8
c-7 -2 -19 -2 -25 0 -7 3 -2 5 12 5 14 0 19 -2 13 -5z m-403 -23 c0 -5 -5 -10
-11 -10 -5 0 -7 5 -4 10 3 6 8 10 11 10 2 0 4 -4 4 -10z m247 -2 c4 -7 6 -21
5 -30 -2 -10 2 -18 7 -18 6 0 11 7 11 15 0 19 26 20 33 1 3 -8 18 -16 34 -18
38 -4 45 -38 9 -38 -14 0 -26 5 -26 11 0 8 -4 8 -13 1 -8 -7 -18 -6 -31 4 -16
11 -23 11 -47 -3 -16 -9 -30 -24 -32 -32 -3 -10 -5 -7 -6 7 -1 13 5 22 14 22
11 0 13 8 9 30 -10 48 12 80 33 48z m1098 2 c3 -5 3 -15 -1 -21 -6 -11 -23 6
-24 24 0 10 18 9 25 -3z m-1353 -45 c3 -16 1 -25 -7 -25 -7 0 -12 11 -12 25 0
14 3 25 7 25 4 0 10 -11 12 -25z m695 -42 c3 -8 -12 -11 -49 -8 -68 4 -72 6
-23 15 51 9 67 8 72 -7z m-196 -30 c19 -9 39 -21 44 -25 6 -4 21 -17 35 -28
20 -15 21 -19 8 -20 -9 0 -19 3 -21 8 -3 4 -32 6 -65 4 l-60 -4 -4 -49 c-6
-59 -13 -69 -33 -43 -14 18 -16 18 -26 2 -7 -13 -23 -18 -57 -18 -41 0 -48 3
-48 20 0 11 3 20 7 20 4 0 5 8 3 18 -3 10 4 22 17 30 21 13 22 13 16 -15 -3
-16 -2 -35 4 -43 6 -10 9 -11 9 -2 0 6 7 12 15 12 8 0 16 10 16 23 l2 22 4
-22 c3 -15 12 -23 24 -23 16 0 18 5 13 26 -5 19 -4 25 5 20 6 -4 11 -1 11 8 0
9 5 16 10 16 6 0 10 18 10 40 0 45 9 49 61 23z m269 -9 c0 -10 -7 -14 -22 -12
-32 5 -35 28 -4 28 17 0 26 -5 26 -16z m730 -25 c0 -10 -6 -19 -14 -19 -9 0
-12 8 -8 25 5 28 22 24 22 -6z m-1404 6 c7 -17 34 -21 34 -5 0 6 7 10 16 10
15 0 15 -2 1 -22 -11 -18 -22 -22 -48 -20 -45 5 -51 10 -39 33 13 23 28 25 36
4z m804 -30 c0 -32 -2 -35 -30 -35 -35 0 -38 15 -8 47 30 32 38 29 38 -12z
m-644 -52 c-11 -11 -19 6 -11 24 8 17 8 17 12 0 3 -10 2 -21 -1 -24z m784 -8
l0 -35 -50 0 c-52 0 -67 15 -26 26 14 3 32 14 42 25 25 28 34 24 34 -16z m505
-25 c3 -25 6 -66 6 -92 0 -33 5 -48 14 -48 17 0 44 -57 37 -82 -3 -14 -7 -16
-12 -7 -6 8 -40 13 -106 13 -98 1 -99 2 -108 29 -6 15 -16 27 -23 27 -16 0
-17 -32 -1 -48 17 -17 -12 -15 -35 2 -14 11 -16 19 -9 33 6 10 10 27 9 37 -1
11 4 21 11 23 7 3 12 -4 12 -17 0 -13 4 -19 12 -14 6 4 37 6 70 5 48 -2 58 1
58 14 0 12 7 15 28 12 25 -4 28 -1 30 24 2 26 -1 29 -27 29 -16 0 -41 4 -55
10 -22 8 -26 15 -24 49 1 44 7 48 56 45 17 -1 32 3 32 9 0 28 19 -12 25 -53z
m-843 33 c10 -9 18 -22 18 -30 0 -8 4 -12 9 -9 5 3 11 -1 14 -9 5 -11 -3 -14
-38 -13 -44 1 -59 13 -30 24 11 5 12 11 5 24 -18 34 -8 40 22 13z m468 -62 c0
-19 -35 -39 -47 -27 -7 7 26 46 39 46 4 0 8 -9 8 -19z m-1007 -11 c-3 -11 -7
-20 -8 -20 -1 0 -5 9 -8 20 -3 12 0 20 8 20 8 0 11 -8 8 -20z m505 -38 c3 -36
0 -43 -20 -51 -17 -6 -25 -5 -30 8 -4 11 -7 12 -7 2 -1 -8 -7 -11 -18 -7 -9 4
-20 1 -25 -6 -6 -10 -8 -10 -8 0 0 6 -9 12 -21 12 -11 0 -32 9 -46 20 -14 11
-29 17 -34 14 -10 -6 -12 17 -3 41 5 13 22 15 108 13 l101 -3 3 -43z m963 8
c10 0 19 -7 19 -15 0 -19 -5 -19 -30 2 -11 10 -19 24 -19 33 1 11 2 11 6 -2 2
-10 13 -18 24 -18z m-524 14 c-3 -3 -12 -4 -19 -1 -8 3 -5 6 6 6 11 1 17 -2
13 -5z m203 -16 c0 -16 -3 -19 -11 -11 -6 6 -8 16 -5 22 11 17 16 13 16 -11z
m-325 -19 c5 -5 -1 -9 -17 -9 -26 0 -26 -1 -12 -27 7 -16 14 -35 14 -43 0 -12
2 -12 9 -1 6 9 11 10 15 2 11 -17 36 -13 36 6 0 13 3 14 12 5 18 -18 68 -15
68 3 0 8 4 15 9 15 5 0 7 -9 4 -20 -3 -13 0 -20 8 -20 29 0 38 16 33 53 -3 25
-1 36 6 32 5 -3 10 -19 10 -36 0 -34 19 -38 40 -10 7 11 17 18 22 15 13 -8 9
-52 -4 -57 -8 -3 -6 -6 5 -6 9 -1 17 -6 17 -11 0 -6 8 -10 17 -8 19 3 21 -10
8 -55 -5 -18 -12 -26 -21 -23 -8 3 -14 -1 -14 -9 0 -10 -10 -15 -30 -15 -20 0
-30 -5 -30 -15 0 -8 -4 -15 -10 -15 -5 0 -10 7 -10 16 0 8 -4 12 -10 9 -5 -3
-18 -1 -27 4 -16 9 -16 10 4 11 12 0 24 6 27 13 5 10 7 10 12 0 9 -21 28 -15
42 14 17 37 16 67 -3 60 -8 -4 -17 -2 -20 3 -10 17 -35 -2 -35 -26 0 -25 -15
-33 -23 -11 -2 7 -16 13 -30 15 -20 1 -27 -5 -35 -28 -8 -21 -17 -28 -32 -27
-19 1 -21 6 -15 34 4 25 2 33 -9 33 -9 0 -16 -12 -18 -32 -2 -22 -9 -34 -21
-36 -14 -3 -17 3 -15 30 3 32 2 33 -37 36 -25 2 -44 11 -53 23 -15 21 -32 17
-32 -8 0 -9 6 -13 15 -9 8 3 15 1 15 -4 0 -12 -20 -13 -36 -2 -6 4 -14 19 -18
35 -7 31 -23 35 -41 10 -11 -15 -14 -15 -31 5 -23 27 -34 28 -34 3 0 -10 -7
-21 -15 -25 -11 -4 -15 2 -15 28 0 44 28 56 131 56 l80 0 5 -30 c8 -36 20 -31
26 10 4 24 1 30 -14 30 -10 0 -18 7 -18 16 0 13 7 15 43 9 23 -4 46 -11 52
-16z m-768 -36 c-11 -10 -26 8 -20 23 5 15 7 14 15 -1 6 -9 7 -19 5 -22z m173
-8 c0 -8 -4 -15 -10 -15 -5 0 -10 7 -10 15 0 8 5 15 10 15 6 0 10 -7 10 -15z
m1633 -5 c-3 -11 -9 -20 -13 -20 -5 0 -6 9 -3 20 3 11 9 20 13 20 5 0 6 -9 3
-20z m-923 -10 c0 -5 -4 -10 -10 -10 -5 0 -10 5 -10 10 0 6 5 10 10 10 6 0 10
-4 10 -10z m-294 -56 c-3 -9 -6 -18 -6 -20 0 -2 -10 -4 -22 -4 -21 0 -21 0 -2
19 23 24 38 27 30 5z m-366 -26 c0 -5 -4 -8 -10 -8 -5 0 -10 10 -10 23 0 18 2
19 10 7 5 -8 10 -18 10 -22z m1485 23 c3 -5 1 -12 -5 -16 -5 -3 -10 1 -10 9 0
18 6 21 15 7z m-278 -47 c-9 -9 -28 6 -21 18 4 6 10 6 17 -1 6 -6 8 -13 4 -17z
m110 0 c27 -30 18 -52 -12 -30 -17 12 -32 56 -19 56 4 0 18 -12 31 -26z m153
-39 c0 -20 -49 -23 -87 -5 -43 20 -42 40 2 40 26 0 35 4 35 16 0 13 6 10 25
-10 14 -15 25 -33 25 -41z m-1240 33 c0 -35 11 -68 22 -68 6 0 19 10 29 22 11
11 19 16 19 10 0 -6 2 -16 5 -24 3 -8 -6 -18 -25 -25 -16 -6 -30 -18 -30 -27
0 -9 -5 -16 -10 -16 -7 0 -7 6 0 19 15 29 13 30 -23 24 -28 -4 -33 -2 -34 16
-2 27 24 91 37 91 6 0 10 -10 10 -22z m681 12 c8 12 10 8 6 -17 -3 -27 0 -33
15 -33 24 0 23 -27 -2 -40 -17 -9 -20 -8 -20 9 0 21 -13 35 -24 24 -10 -10
-56 -12 -56 -2 0 5 10 9 23 10 12 0 16 3 10 6 -17 6 -16 18 3 38 14 13 19 14
25 3 7 -11 11 -10 20 2z m-478 -50 c6 0 18 7 27 15 15 14 18 13 30 -10 14 -27
5 -49 -10 -25 -10 16 -13 12 -24 -42 -9 -39 -36 -37 -36 2 0 32 -9 37 -28 18
-21 -21 -25 19 -5 52 17 29 18 30 27 10 5 -11 14 -20 19 -20z m1054 18 c-3 -8
-6 -5 -6 6 -1 11 2 17 5 13 3 -3 4 -12 1 -19z m1618 -73 c0 -64 -3 -80 -15
-83 -14 -2 -16 11 -16 83 0 72 2 85 16 83 12 -3 15 -19 15 -83z m-4690 18 c-5
-15 -8 -31 -7 -35 1 -5 -5 -8 -13 -8 -8 0 -15 5 -15 10 0 6 4 10 9 10 5 0 7
19 4 43 -5 40 -4 41 12 25 13 -12 16 -23 10 -45z m775 43 c0 -2 -7 -9 -15 -16
-12 -10 -15 -10 -15 4 0 9 7 16 15 16 8 0 15 -2 15 -4z m1838 -56 c2 -45 -14
-53 -28 -14 -9 21 -7 29 7 40 10 7 18 14 19 14 0 0 1 -18 2 -40z m71 27 c14
-18 -8 -68 -29 -64 -22 4 -21 77 1 77 9 0 22 -6 28 -13z m-759 -32 c0 -14 -4
-25 -10 -25 -5 0 -9 11 -8 25 1 14 6 25 10 25 4 0 8 -11 8 -25z m289 -9 c-2
-19 0 -38 4 -42 15 -15 6 -24 -17 -18 -18 4 -25 1 -29 -13 -3 -10 -5 -4 -6 15
0 17 3 32 7 32 4 0 13 14 19 30 15 40 25 38 22 -4z m181 25 c0 -6 -4 -13 -10
-16 -5 -3 -10 1 -10 9 0 9 5 16 10 16 6 0 10 -4 10 -9z m170 0 c0 -22 -13 -41
-29 -40 -12 0 -12 2 -2 6 11 5 11 7 0 14 -12 8 -11 11 1 19 19 12 30 13 30 1z
m173 -26 c4 -8 2 -17 -3 -20 -6 -4 -10 3 -10 14 0 25 6 27 13 6z m-583 -19 c0
-14 -4 -27 -9 -31 -12 -7 -25 31 -16 45 11 18 25 10 25 -14z m236 -11 c-3 -9
2 -11 15 -8 10 3 26 -1 35 -8 13 -10 17 -10 24 1 13 21 39 5 33 -21 -5 -18 -3
-20 16 -14 11 3 21 3 21 -2 0 -4 3 -18 6 -29 5 -18 2 -21 -18 -19 -13 1 -31 3
-40 4 -11 0 -18 9 -18 21 0 11 -5 20 -11 20 -6 0 -9 -9 -6 -20 3 -11 1 -20 -4
-20 -5 0 -9 9 -9 20 0 15 -7 20 -25 20 -14 0 -25 4 -25 9 0 6 -12 16 -27 23
-33 15 -33 31 -1 39 28 7 41 1 34 -16z m-1345 -8 c-1 -4 -1 -15 -1 -26 0 -13
-7 -18 -24 -18 -22 0 -23 1 -9 29 13 25 36 36 34 15z m1039 -19 c0 -21 -3 -29
-10 -22 -5 5 -7 19 -4 32 9 31 14 27 14 -10z m470 6 c0 -2 -9 -4 -20 -4 -11 0
-20 4 -20 9 0 5 9 7 20 4 11 -3 20 -7 20 -9z m-1456 -66 c-3 -29 -8 -60 -11
-68 -3 -8 -5 -36 -4 -61 2 -26 -2 -50 -8 -54 -6 -3 -11 0 -12 7 0 7 -2 29 -5
49 -2 20 1 50 7 65 7 16 11 44 10 61 -3 35 4 53 19 53 6 0 7 -23 4 -52z m716
-30 c0 -32 -3 -39 -10 -28 -5 8 -10 27 -10 43 0 15 -4 27 -10 27 -5 0 -10 9
-10 20 l0 20 20 -20 c14 -14 20 -33 20 -62z m10 72 c0 -5 -2 -10 -4 -10 -3 0
-8 5 -11 10 -3 6 -1 10 4 10 6 0 11 -4 11 -10z m405 -39 c3 -5 1 -12 -5 -16
-5 -3 -10 1 -10 9 0 18 6 21 15 7z m-238 -63 c-3 -7 -5 -2 -5 12 0 14 2 19 5
13 2 -7 2 -19 0 -25z m500 -110 c-3 -7 -5 -2 -5 12 0 14 2 19 5 13 2 -7 2 -19
0 -25z m40 10 c-3 -8 -6 -5 -6 6 -1 11 2 17 5 13 3 -3 4 -12 1 -19z m-757 -14
c0 -8 4 -14 10 -14 5 0 7 6 4 14 -3 8 -1 17 5 20 12 8 26 -37 17 -59 -3 -8
-10 -15 -15 -15 -12 0 -51 66 -44 74 9 9 23 -4 23 -20z m-30 -21 c0 -5 -5 -15
-10 -23 -8 -12 -10 -11 -10 8 0 12 5 22 10 22 6 0 10 -3 10 -7z m585 -51 c3
-36 2 -38 -18 -17 -16 16 -11 58 6 52 5 -1 11 -17 12 -35z m-55 18 c0 -5 -4
-10 -10 -10 -5 0 -10 5 -10 10 0 6 5 10 10 10 6 0 10 -4 10 -10z m-480 -24 c0
-3 -4 -8 -10 -11 -5 -3 -10 -1 -10 4 0 6 5 11 10 11 6 0 10 -2 10 -4z m1290
-191 c0 -32 -4 -45 -14 -45 -15 0 -26 -30 -26 -73 l0 -28 -87 3 -88 3 -3 93
-3 92 111 0 110 0 0 -45z m848 -86 c-2 -21 1 -41 7 -43 5 -2 -1 -5 -15 -5 -24
-1 -26 2 -22 37 5 51 10 64 23 56 6 -3 9 -24 7 -45z m72 1 c0 -45 -2 -50 -22
-49 -22 0 -22 1 -3 9 17 7 17 9 3 9 -14 1 -18 10 -18 35 0 24 5 36 18 39 9 3
18 5 20 6 1 0 2 -21 2 -49z m60 5 c0 -26 -4 -35 -17 -36 -12 -1 -10 -4 7 -9
l25 -8 -27 -1 c-27 -1 -28 1 -28 44 0 38 3 45 20 45 16 0 20 -7 20 -35z"/>
<path d="M2067 1623 c-3 -5 1 -14 9 -21 12 -10 14 -10 14 2 0 17 -16 30 -23
19z"/>
<path d="M2225 1330 c-3 -5 -1 -10 4 -10 6 0 11 5 11 10 0 6 -2 10 -4 10 -3 0
-8 -4 -11 -10z"/>
<path d="M483 4613 c-31 -3 -43 -9 -43 -20 0 -12 10 -14 45 -11 32 2 46 -1 50
-11 3 -8 2 -17 -2 -20 -4 -3 -9 -32 -10 -64 -2 -46 1 -57 10 -48 7 5 14 27 15
48 4 63 13 93 28 93 8 0 14 7 14 15 0 8 -9 15 -19 15 -11 0 -25 1 -33 3 -7 2
-32 2 -55 0z"/>
<path d="M1598 4613 c-16 -2 -28 -11 -28 -19 0 -11 16 -14 70 -14 56 0 70 3
70 15 0 9 -9 15 -22 15 -13 0 -32 2 -43 4 -11 2 -32 1 -47 -1z"/>
<path d="M4006 4612 c-9 -2 -16 -10 -16 -17 0 -10 17 -15 63 -17 l62 -3 0 -80
0 -80 -37 -3 c-25 -2 -38 -8 -38 -18 0 -10 14 -14 59 -14 l58 0 7 61 c3 34 6
86 6 115 l0 52 -74 4 c-41 2 -81 2 -90 0z"/>
<path d="M80 4595 c0 -10 10 -15 30 -15 20 0 30 5 30 15 0 10 -10 15 -30 15
-20 0 -30 -5 -30 -15z"/>
<path d="M691 4594 c0 -11 3 -14 6 -6 3 7 2 16 -1 19 -3 4 -6 -2 -5 -13z"/>
<path d="M760 4595 c0 -8 4 -15 10 -15 5 0 7 7 4 15 -4 8 -8 15 -10 15 -2 0
-4 -7 -4 -15z"/>
<path d="M870 4595 c0 -11 11 -15 40 -15 29 0 40 4 40 15 0 11 -11 15 -40 15
-29 0 -40 -4 -40 -15z"/>
<path d="M1010 4595 c0 -8 7 -15 15 -15 9 0 12 6 9 15 -4 8 -10 15 -15 15 -5
0 -9 -7 -9 -15z"/>
<path d="M1073 4598 c4 -13 8 -15 52 -17 17 -1 26 -8 31 -26 8 -32 34 -33 34
-1 0 14 5 28 10 31 21 13 9 25 -25 25 -21 0 -35 -5 -35 -12 0 -9 -3 -9 -12 0
-16 16 -61 16 -55 0z"/>
<path d="M2020 4595 c0 -11 12 -15 49 -15 34 0 51 4 55 15 4 12 -5 15 -49 15
-42 0 -55 -3 -55 -15z"/>
<path d="M2488 4603 c6 -2 12 -11 12 -19 0 -9 4 -13 10 -9 14 9 0 35 -19 34
-10 0 -11 -2 -3 -6z"/>
<path d="M2570 4595 c0 -8 5 -15 10 -15 6 0 10 5 10 10 0 6 11 10 25 10 15 0
24 -5 23 -12 -2 -8 5 -12 17 -10 23 5 39 25 24 31 -6 2 -15 -3 -20 -10 -6 -10
-9 -11 -9 -1 0 7 -15 12 -40 12 -29 0 -40 -4 -40 -15z"/>
<path d="M2960 4601 c0 -16 19 -23 40 -16 30 10 24 25 -10 25 -16 0 -30 -4
-30 -9z"/>
<path d="M3106 4595 c-4 -11 2 -15 25 -15 27 0 29 2 15 15 -8 8 -19 15 -24 15
-6 0 -12 -7 -16 -15z"/>
<path d="M3319 4601 c11 -7 14 -25 12 -63 -4 -69 5 -59 12 15 5 54 4 57 -16
57 -17 0 -19 -2 -8 -9z"/>
<path d="M3770 4595 c0 -8 5 -15 10 -15 6 0 10 7 10 15 0 8 -4 15 -10 15 -5 0
-10 -7 -10 -15z"/>
<path d="M4230 4595 c0 -10 11 -15 35 -15 24 0 35 5 35 15 0 10 -11 15 -35 15
-24 0 -35 -5 -35 -15z"/>
<path d="M790 4590 c0 -5 5 -10 10 -10 6 0 10 5 10 10 0 6 -4 10 -10 10 -5 0
-10 -4 -10 -10z"/>
<path d="M330 4548 c0 -62 10 -88 31 -88 21 0 34 16 19 25 -5 3 -10 26 -10 50
0 30 -5 45 -16 49 -24 9 -24 9 -24 -36z"/>
<path d="M191 4514 c0 -11 3 -14 6 -6 3 7 2 16 -1 19 -3 4 -6 -2 -5 -13z"/>
<path d="M2490 4486 c0 -9 5 -16 10 -16 6 0 10 4 10 9 0 6 -4 13 -10 16 -5 3
-10 -1 -10 -9z"/>
<path d="M2705 4480 c-3 -5 -1 -10 4 -10 6 0 11 5 11 10 0 6 -2 10 -4 10 -3 0
-8 -4 -11 -10z"/>
<path d="M861 4454 c0 -11 3 -14 6 -6 3 7 2 16 -1 19 -3 4 -6 -2 -5 -13z"/>
<path d="M1184 4436 c-7 -8 -7 -20 1 -40 l12 -29 6 29 c7 36 -3 57 -19 40z"/>
<path d="M18 4401 c3 -7 -1 -17 -8 -21 -8 -5 -9 -9 -1 -14 6 -4 11 -2 11 3 0
7 35 11 95 11 55 0 95 4 95 10 0 13 -31 19 -121 22 -61 2 -75 0 -71 -11z"/>
<path d="M223 4391 c-7 -12 -12 -33 -12 -48 1 -21 3 -23 6 -8 3 11 10 23 15
26 5 4 8 16 6 28 -3 22 -3 22 -15 2z"/>
<path d="M456 4395 c4 -8 8 -15 10 -15 2 0 4 7 4 15 0 8 -4 15 -10 15 -5 0 -7
-7 -4 -15z"/>
<path d="M900 4392 c0 -7 8 -12 17 -10 24 4 27 24 3 24 -11 0 -20 -6 -20 -14z"/>
<path d="M985 4400 c-50 -9 -47 -10 38 -15 50 -3 67 -1 64 8 -4 14 -44 16
-102 7z"/>
<path d="M1341 4394 c0 -11 3 -14 6 -6 3 7 2 16 -1 19 -3 4 -6 -2 -5 -13z"/>
<path d="M2094 4395 c8 -8 28 -15 45 -15 21 0 31 5 31 15 0 11 -12 15 -46 15
-40 0 -44 -2 -30 -15z"/>
<path d="M2760 4397 c0 -16 9 -18 77 -15 49 2 78 7 80 15 3 9 -14 12 -66 11
-44 -1 -71 -5 -71 -12 0 -6 -5 -4 -10 4 -8 13 -10 12 -10 -3z"/>
<path d="M3038 4403 c7 -3 16 -2 19 1 4 3 -2 6 -13 5 -11 0 -14 -3 -6 -6z"/>
<path d="M3110 4400 c0 -5 5 -10 10 -10 6 0 10 5 10 10 0 6 -4 10 -10 10 -5 0
-10 -4 -10 -10z"/>
<path d="M3813 4360 c5 -63 17 -78 17 -22 l0 42 70 0 c56 0 70 3 70 15 0 12
-16 15 -81 15 l-80 0 4 -50z"/>
<path d="M4234 4394 c3 -9 6 -20 6 -26 0 -6 6 -6 15 2 22 18 18 40 -6 40 -15
0 -19 -4 -15 -16z"/>
<path d="M2430 4380 c0 -11 4 -20 9 -20 5 0 7 9 4 20 -3 11 -7 20 -9 20 -2 0
-4 -9 -4 -20z"/>
<path d="M550 4386 c0 -2 9 -6 20 -9 11 -3 20 -1 20 4 0 5 -9 9 -20 9 -11 0
-20 -2 -20 -4z"/>
<path d="M599 4378 c-6 -58 -4 -68 13 -68 11 0 18 -7 18 -20 0 -21 8 -24 34
-14 11 4 16 19 16 45 0 32 -3 39 -20 39 -11 0 -20 7 -20 15 0 18 -39 20 -41 3z"/>
<path d="M2692 4340 c0 -14 2 -19 5 -12 2 6 2 18 0 25 -3 6 -5 1 -5 -13z"/>
<path d="M780 4311 c0 -30 4 -41 16 -41 11 0 14 9 12 37 -4 52 -28 56 -28 4z"/>
<path d="M1451 4314 c0 -11 3 -14 6 -6 3 7 2 16 -1 19 -3 4 -6 -2 -5 -13z"/>
<path d="M2670 4280 c0 -5 7 -7 15 -4 8 4 15 8 15 10 0 2 -7 4 -15 4 -8 0 -15
-4 -15 -10z"/>
<path d="M650 4250 c0 -5 5 -10 11 -10 5 0 7 5 4 10 -3 6 -8 10 -11 10 -2 0
-4 -4 -4 -10z"/>
<path d="M2773 4186 c27 -13 60 -35 75 -48 34 -30 62 -42 62 -26 0 30 19 -11
22 -47 l3 -40 48 2 c26 2 60 11 74 20 15 10 30 17 33 16 3 -1 7 1 9 3 2 2 -3
4 -12 4 -22 0 -31 18 -17 35 6 8 9 18 6 23 -3 5 -6 25 -8 45 l-2 37 -171 0
-170 -1 48 -23z m91 -22 c4 -11 1 -14 -11 -12 -9 2 -18 9 -21 16 -6 18 25 15
32 -4z"/>
<path d="M3270 4195 c0 -8 5 -15 10 -15 6 0 10 7 10 15 0 8 -4 15 -10 15 -5 0
-10 -7 -10 -15z"/>
<path d="M3945 4183 c3 -16 15 -37 26 -49 10 -11 19 -28 19 -37 0 -27 11 -21
83 48 l69 65 -102 0 -102 0 7 -27z"/>
<path d="M4521 4190 c0 -14 -8 -35 -16 -47 -9 -14 -16 -57 -20 -127 -6 -117
-9 -114 63 -74 18 10 39 18 46 18 7 0 30 14 51 30 21 17 41 30 46 30 4 0 20
12 36 28 44 41 77 68 96 75 9 3 17 11 17 17 0 5 6 10 13 10 6 0 25 14 41 30
l29 30 -166 0 c-142 0 -167 -2 -167 -15 0 -22 -57 -20 -63 3 -3 11 -5 9 -6 -8z"/>
<path d="M565 4170 c3 -5 12 -7 20 -3 21 7 19 13 -6 13 -11 0 -18 -4 -14 -10z"/>
<path d="M620 4176 c0 -2 7 -6 15 -10 8 -3 15 -1 15 4 0 6 -7 10 -15 10 -8 0
-15 -2 -15 -4z"/>
<path d="M1075 4168 c-13 -33 -12 -78 1 -78 10 0 54 70 54 87 0 10 -51 1 -55
-9z"/>
<path d="M580 4046 c0 -2 11 -6 25 -8 14 -3 25 -1 25 3 0 5 -11 9 -25 9 -14 0
-25 -2 -25 -4z"/>
<path d="M651 4014 c0 -11 3 -14 6 -6 3 7 2 16 -1 19 -3 4 -6 -2 -5 -13z"/>
<path d="M2530 3945 c0 -22 19 -38 21 -17 0 4 2 15 4 25 2 9 -3 17 -11 17 -8
0 -14 -10 -14 -25z"/>
<path d="M1302 3930 c0 -14 2 -19 5 -12 2 6 2 18 0 25 -3 6 -5 1 -5 -13z"/>
<path d="M4974 3943 c3 -4 1 -12 -5 -19 -14 -17 -1 -101 17 -108 9 -4 18 3 24
17 6 16 9 17 9 5 1 -9 -4 -20 -10 -23 -6 -4 -8 -14 -5 -22 3 -8 1 -11 -4 -8
-6 3 -10 1 -10 -4 0 -6 5 -11 10 -11 23 0 7 -36 -33 -74 -23 -23 -78 -81 -121
-129 -64 -72 -76 -90 -66 -102 7 -8 18 -15 26 -15 7 0 25 -12 41 -27 28 -29
48 -42 98 -67 17 -8 43 -24 60 -35 28 -19 30 -19 37 -3 9 22 10 325 1 470 -4
81 -10 112 -19 112 -7 0 -14 10 -16 22 -2 11 -11 22 -21 24 -11 1 -16 0 -13
-3z m26 -27 c0 -2 -8 -10 -17 -17 -16 -13 -17 -12 -4 4 13 16 21 21 21 13z"/>
<path d="M1150 3930 c0 -5 5 -10 10 -10 6 0 10 5 10 10 0 6 -4 10 -10 10 -5 0
-10 -4 -10 -10z"/>
<path d="M1266 3915 c4 -8 8 -15 10 -15 2 0 4 7 4 15 0 8 -4 15 -10 15 -5 0
-7 -7 -4 -15z"/>
<path d="M1170 3906 c0 -9 40 -13 46 -5 3 5 -6 9 -20 9 -14 0 -26 -2 -26 -4z"/>
<path d="M2538 3903 c6 -2 18 -2 25 0 6 3 1 5 -13 5 -14 0 -19 -2 -12 -5z"/>
<path d="M2598 3903 c7 -3 16 -2 19 1 4 3 -2 6 -13 5 -11 0 -14 -3 -6 -6z"/>
<path d="M952 3870 c0 -14 2 -19 5 -12 2 6 2 18 0 25 -3 6 -5 1 -5 -13z"/>
<path d="M1310 3880 c0 -5 9 -14 20 -20 22 -12 27 -1 8 18 -14 14 -28 16 -28
2z"/>
<path d="M2746 3881 c-3 -5 3 -11 14 -14 21 -5 32 1 24 14 -7 12 -31 11 -38 0z"/>
<path d="M1110 3865 c-7 -9 -9 -19 -5 -23 4 -4 10 -1 12 6 7 18 21 15 26 -5 3
-11 5 -7 6 10 1 30 -19 36 -39 12z"/>
<path d="M718 3838 c4 -28 6 -30 12 -13 8 21 3 45 -9 45 -4 0 -5 -15 -3 -32z"/>
<path d="M1360 3860 c0 -5 5 -10 10 -10 6 0 10 5 10 10 0 6 -4 10 -10 10 -5 0
-10 -4 -10 -10z"/>
<path d="M783 3831 c-9 -15 -9 -22 0 -30 21 -17 37 1 23 26 -11 22 -12 22 -23
4z"/>
<path d="M984 3704 c3 -9 6 -19 6 -22 0 -9 20 21 20 31 0 4 -7 7 -16 7 -11 0
-14 -5 -10 -16z"/>
<path d="M1040 3710 c0 -5 9 -10 21 -10 11 0 17 5 14 10 -3 6 -13 10 -21 10
-8 0 -14 -4 -14 -10z"/>
<path d="M1089 3645 c-1 -3 -2 -8 -3 -12 -1 -5 -5 -14 -9 -20 -5 -9 -3 -13 7
-13 9 0 16 6 16 14 0 8 5 16 12 18 7 3 6 7 -5 11 -9 3 -18 4 -18 2z"/>
<path d="M1901 2624 c0 -11 3 -14 6 -6 3 7 2 16 -1 19 -3 4 -6 -2 -5 -13z"/>
<path d="M1878 2563 c7 -3 16 -2 19 1 4 3 -2 6 -13 5 -11 0 -14 -3 -6 -6z"/>
<path d="M2480 2507 c0 -10 -7 -13 -20 -10 -15 4 -20 0 -20 -16 0 -12 6 -24
14 -27 8 -3 20 -20 27 -37 l13 -32 3 28 c3 15 9 27 14 27 5 0 4 10 -3 23 -7
12 -11 27 -10 34 1 6 -2 14 -8 18 -5 3 -10 0 -10 -8z"/>
<path d="M2336 2466 c3 -15 -1 -34 -11 -50 -17 -26 -17 -26 13 -26 16 0 35 -7
42 -15 18 -22 37 -18 44 8 8 31 7 37 -4 37 -5 0 -19 9 -30 20 -11 11 -15 20
-10 20 6 0 10 7 10 15 0 10 -10 15 -30 15 -27 0 -30 -3 -24 -24z"/>
<path d="M1666 2454 c-10 -25 1 -29 14 -5 6 12 7 21 1 21 -5 0 -12 -7 -15 -16z"/>
<path d="M2233 2434 c-2 -7 0 -22 7 -33 13 -25 45 -29 36 -5 -3 9 -6 24 -6 33
0 20 -29 24 -37 5z"/>
<path d="M1535 2410 c-3 -5 -2 -10 4 -10 5 0 13 5 16 10 3 6 2 10 -4 10 -5 0
-13 -4 -16 -10z"/>
<path d="M1790 2406 c0 -9 5 -16 10 -16 6 0 10 4 10 9 0 6 -4 13 -10 16 -5 3
-10 -1 -10 -9z"/>
<path d="M2087 2404 c-3 -3 -3 -13 0 -21 5 -12 7 -12 14 -1 15 23 4 40 -14 22z"/>
<path d="M2146 2372 c-7 -29 -9 -30 -58 -28 -40 1 -53 -2 -64 -18 -8 -11 -14
-15 -14 -8 0 6 -4 12 -9 12 -4 0 -6 -11 -4 -24 3 -13 0 -27 -6 -30 -5 -4 -8
-13 -4 -21 4 -11 -2 -15 -20 -15 -21 0 -24 4 -19 23 5 19 4 20 -11 8 -9 -7
-15 -17 -12 -21 3 -5 0 -10 -6 -12 -9 -3 -9 -10 0 -27 l12 -22 20 22 c20 23
26 11 9 -21 -7 -13 -6 -19 6 -24 24 -9 35 3 28 32 -5 22 -4 25 7 15 10 -11 15
-7 25 17 11 26 18 30 54 30 22 0 40 4 40 9 0 5 3 17 7 27 4 12 3 15 -5 10 -7
-4 -12 -1 -12 8 0 9 6 13 14 10 17 -7 47 48 36 66 -5 8 -10 2 -14 -18z m-56
-77 c10 -12 10 -15 -4 -15 -9 0 -16 7 -16 15 0 8 2 15 4 15 2 0 9 -7 16 -15z"/>
<path d="M1850 2353 c0 -38 13 -63 31 -63 12 0 16 5 13 14 -3 8 -1 23 5 34 9
17 7 21 -12 26 -33 9 -37 8 -37 -11z"/>
<path d="M2228 2363 c7 -3 16 -2 19 1 4 3 -2 6 -13 5 -11 0 -14 -3 -6 -6z"/>
<path d="M2305 2361 c-3 -5 -1 -12 5 -16 5 -3 10 1 10 9 0 18 -6 21 -15 7z"/>
<path d="M2191 2334 c0 -11 3 -14 6 -6 3 7 2 16 -1 19 -3 4 -6 -2 -5 -13z"/>
<path d="M2670 2330 c0 -7 -8 -9 -19 -5 -11 3 -25 -1 -34 -9 -8 -8 -17 -12
-21 -9 -3 4 -6 1 -6 -5 0 -7 9 -12 20 -12 13 0 20 -7 20 -19 0 -11 4 -22 9
-25 4 -3 6 5 4 18 -3 13 0 27 6 30 6 4 11 2 11 -5 0 -8 4 -8 15 1 17 14 20 36
5 45 -5 3 -10 1 -10 -5z"/>
<path d="M2320 2320 c0 -5 5 -10 10 -10 6 0 10 5 10 10 0 6 -4 10 -10 10 -5 0
-10 -4 -10 -10z"/>
<path d="M2540 2320 c0 -5 7 -10 16 -10 8 0 12 5 9 10 -3 6 -10 10 -16 10 -5
0 -9 -4 -9 -10z"/>
<path d="M2195 2300 c3 -5 8 -10 11 -10 2 0 4 5 4 10 0 6 -5 10 -11 10 -5 0
-7 -4 -4 -10z"/>
<path d="M2507 2251 c8 -30 32 -48 43 -31 10 16 1 42 -11 34 -6 -3 -16 -1 -24
6 -11 9 -12 7 -8 -9z"/>
<path d="M2440 2215 c0 -8 7 -15 15 -15 9 0 12 6 9 15 -4 8 -10 15 -15 15 -5
0 -9 -7 -9 -15z"/>
<path d="M2640 2226 c0 -2 6 -9 13 -15 10 -8 14 -7 14 4 0 8 -6 15 -14 15 -7
0 -13 -2 -13 -4z"/>
<path d="M2582 2170 c0 -14 2 -19 5 -12 2 6 2 18 0 25 -3 6 -5 1 -5 -13z"/>
<path d="M2010 2170 c0 -5 5 -10 10 -10 6 0 10 5 10 10 0 6 -4 10 -10 10 -5 0
-10 -4 -10 -10z"/>
<path d="M2447 2163 c-4 -3 5 -12 20 -20 27 -14 51 -4 39 16 -8 12 -49 15 -59
4z"/>
<path d="M2367 2101 c7 -45 12 -50 24 -28 6 9 17 17 24 17 8 0 15 4 15 10 0 5
-7 7 -15 4 -11 -4 -13 -2 -10 9 4 10 -2 16 -19 19 -23 5 -24 3 -19 -31z"/>
<path d="M2726 2103 c-9 -55 -8 -79 3 -67 5 5 11 18 13 29 3 17 7 14 21 -15
18 -34 17 -35 -2 -51 -18 -15 -18 -18 -5 -23 11 -4 20 5 31 34 9 22 19 38 23
35 4 -2 7 1 7 8 0 7 4 21 8 31 7 16 5 18 -12 14 -13 -4 -31 3 -48 18 -16 13
-29 24 -30 24 -1 0 -5 -17 -9 -37z"/>
<path d="M2220 2111 c0 -5 5 -13 10 -16 6 -3 10 -2 10 4 0 5 -4 13 -10 16 -5
3 -10 2 -10 -4z"/>
<path d="M2620 2112 c0 -5 7 -16 16 -23 14 -12 16 -11 13 5 -4 20 -29 35 -29
18z"/>
<path d="M2175 2100 c-3 -5 -1 -10 4 -10 6 0 11 5 11 10 0 6 -2 10 -4 10 -3 0
-8 -4 -11 -10z"/>
<path d="M2518 2103 c-3 -4 -5 -23 -7 -42 -2 -34 -1 -34 19 -16 11 10 20 24
20 30 0 16 -27 39 -32 28z"/>
<path d="M2670 2040 c0 -22 16 -43 28 -39 7 3 3 14 -8 29 -13 17 -20 20 -20
10z"/>
<path d="M1920 2015 c0 -10 10 -15 31 -15 27 0 29 2 15 15 -8 8 -22 15 -30 15
-9 0 -16 -7 -16 -15z"/>
<path d="M2640 1980 c0 -5 12 -10 26 -10 14 0 23 4 19 10 -3 6 -15 10 -26 10
-10 0 -19 -4 -19 -10z"/>
<path d="M2386 1944 c-4 -9 -3 -20 0 -23 4 -3 9 0 11 7 3 6 9 10 14 6 5 -3 9
2 9 10 0 21 -26 20 -34 0z"/>
<path d="M2655 1930 c3 -5 10 -10 16 -10 5 0 9 5 9 10 0 6 -7 10 -16 10 -8 0
-12 -4 -9 -10z"/>
<path d="M2534 1908 c-4 -6 -2 -14 4 -16 7 -2 12 -14 12 -27 0 -26 33 -40 59
-25 10 6 11 10 4 10 -8 0 -13 14 -13 35 0 32 -2 35 -29 35 -17 0 -33 -5 -37
-12z"/>
<path d="M2976 1901 c-3 -4 -16 -6 -29 -4 -21 4 -25 0 -31 -28 -3 -18 -2 -35
3 -38 4 -3 12 -16 16 -29 5 -19 3 -25 -14 -29 -12 -3 -21 -12 -21 -19 0 -21
30 -30 41 -13 8 12 12 11 23 -3 18 -25 36 -22 36 4 0 12 3 18 7 14 4 -4 13 14
20 41 8 30 9 51 3 57 -6 6 -10 20 -10 33 0 16 -6 23 -19 23 -11 0 -22 -4 -25
-9z"/>
<path d="M2470 1853 c0 -18 10 -35 27 -49 23 -18 25 -24 15 -37 -11 -13 -17
-13 -39 -2 -15 8 -30 12 -35 9 -15 -10 -8 -43 11 -49 24 -7 35 -34 20 -51 -6
-8 -9 -20 -6 -28 4 -10 -2 -16 -21 -19 -24 -3 -24 -4 3 -3 23 1 31 6 33 24 2
12 9 22 17 22 13 0 35 70 35 110 0 12 5 18 10 15 6 -3 10 -3 10 0 0 10 -28 35
-39 35 -6 0 -11 11 -11 25 0 16 -6 25 -15 25 -10 0 -15 -10 -15 -27z"/>
<path d="M3740 1750 l0 -40 131 0 c121 0 129 1 114 16 -9 9 -23 27 -32 40 -14
23 -21 24 -114 24 l-99 0 0 -40z"/>
<path d="M2865 1750 c-8 -13 -1 -24 14 -19 6 3 7 10 2 18 -6 10 -10 10 -16 1z"/>
<path d="M3085 1720 c-9 -14 13 -40 34 -40 12 0 13 2 3 9 -8 4 -13 11 -13 15
4 27 -11 37 -24 16z"/>
<path d="M2584 1705 c3 -9 6 -21 6 -26 0 -5 11 -9 25 -9 21 0 23 3 16 23 -4
12 -18 24 -31 25 -18 3 -21 0 -16 -13z"/>
<path d="M2296 1695 c4 -8 10 -15 15 -15 5 0 9 7 9 15 0 8 -7 15 -15 15 -9 0
-12 -6 -9 -15z"/>
<path d="M2728 1655 c2 -14 8 -25 13 -25 5 0 9 -6 9 -14 0 -7 9 -16 20 -19 11
-3 20 -9 18 -14 -1 -4 1 -18 6 -30 6 -19 15 -23 47 -23 21 0 39 4 39 9 0 5 -7
8 -16 7 -9 0 -20 9 -24 20 -8 19 -4 22 31 28 21 3 39 11 39 16 0 6 -4 10 -10
10 -5 0 -16 13 -24 28 -8 15 -23 28 -33 29 -16 1 -18 -4 -15 -33 5 -41 -10
-45 -25 -6 -10 25 -11 25 -12 5 -1 -28 -21 -31 -21 -3 0 11 -7 20 -15 20 -8 0
-15 5 -15 10 0 6 -4 10 -9 10 -4 0 -6 -11 -3 -25z"/>
<path d="M2203 1653 c9 -2 25 -2 35 0 9 3 1 5 -18 5 -19 0 -27 -2 -17 -5z"/>
<path d="M2494 1635 c-9 -22 4 -65 20 -65 8 0 14 6 13 13 -1 33 5 45 23 50 16
4 20 0 20 -19 0 -13 5 -24 10 -24 11 0 12 6 4 38 -5 18 -13 22 -45 22 -26 0
-42 -5 -45 -15z"/>
<path d="M2625 1640 c3 -5 13 -10 21 -10 8 0 12 5 9 10 -3 6 -13 10 -21 10 -8
0 -12 -4 -9 -10z"/>
<path d="M4050 1616 l0 -26 -150 0 -150 0 0 -40 0 -40 165 0 165 0 0 54 c0 35
-5 58 -15 66 -13 11 -15 8 -15 -14z"/>
<path d="M2960 1600 c0 -5 5 -10 11 -10 5 0 7 5 4 10 -3 6 -8 10 -11 10 -2 0
-4 -4 -4 -10z"/>
<path d="M2588 1573 c27 -4 32 -8 27 -24 -5 -14 -2 -19 13 -19 15 0 18 5 14
25 -4 22 -9 25 -46 23 -37 -1 -38 -2 -8 -5z"/>
<path d="M2935 1550 c-16 -7 -17 -9 -3 -9 9 -1 19 -7 21 -13 3 -7 6 -3 6 10 1
12 0 22 -1 21 -2 0 -12 -4 -23 -9z"/>
<path d="M2347 1510 c-25 -36 -22 -39 33 -38 28 1 50 3 50 5 0 10 -30 33 -43
33 -9 0 -17 5 -19 12 -3 7 -11 2 -21 -12z"/>
<path d="M2300 1490 c0 -11 2 -20 4 -20 2 0 6 9 9 20 3 11 1 20 -4 20 -5 0 -9
-9 -9 -20z"/>
<path d="M2586 1483 c-6 -14 -5 -15 5 -6 7 7 10 15 7 18 -3 3 -9 -2 -12 -12z"/>
<path d="M2845 1480 c-3 -5 1 -10 10 -10 9 0 13 5 10 10 -3 6 -8 10 -10 10 -2
0 -7 -4 -10 -10z"/>
<path d="M2896 1462 c-3 -6 -1 -14 5 -17 14 -9 20 -2 10 14 -6 8 -11 9 -15 3z"/>
<path d="M2590 1450 c0 -6 7 -10 15 -10 8 0 15 2 15 4 0 2 -7 6 -15 10 -8 3
-15 1 -15 -4z"/>
<path d="M2525 1420 c-3 -5 -1 -10 4 -10 6 0 11 5 11 10 0 6 -2 10 -4 10 -3 0
-8 -4 -11 -10z"/>
<path d="M2622 1385 c-11 -25 -11 -25 38 -25 30 0 50 4 50 11 0 7 -11 9 -30 6
-22 -5 -30 -3 -30 8 0 25 -17 25 -28 0z"/>
<path d="M2305 1390 c3 -5 8 -10 11 -10 2 0 4 5 4 10 0 6 -5 10 -11 10 -5 0
-7 -4 -4 -10z"/>
<path d="M4130 1350 c0 -22 5 -40 10 -40 6 0 10 18 10 40 0 22 -4 40 -10 40
-5 0 -10 -18 -10 -40z"/>
<path d="M4320 1350 l0 -40 165 0 165 0 0 40 0 40 -165 0 -165 0 0 -40z"/>
<path d="M3000 1345 c0 -9 6 -12 15 -9 8 4 12 10 9 15 -8 14 -24 10 -24 -6z"/>
<path d="M2740 1299 c0 -5 5 -7 10 -4 6 3 10 8 10 11 0 2 -4 4 -10 4 -5 0 -10
-5 -10 -11z"/>
<path d="M4330 1150 l0 -40 223 0 c122 0 239 -3 260 -6 l37 -7 0 47 0 46 -260
0 -260 0 0 -40z"/>
<path d="M4921 294 c0 -11 3 -14 6 -6 3 7 2 16 -1 19 -3 4 -6 -2 -5 -13z"/>
<path d="M2756 233 c-7 -25 -14 -33 -31 -33 -34 0 -55 -10 -55 -26 0 -11 24
-14 119 -14 112 0 148 8 119 26 -14 9 -20 10 -90 12 -45 2 -47 3 -51 35 l-3
32 -8 -32z"/>
<path d="M12 181 c-1 -93 9 -171 22 -171 16 0 26 53 26 141 0 62 -2 67 -23 71
-22 4 -24 1 -25 -41z m35 23 c-3 -3 -12 -4 -19 -1 -8 3 -5 6 6 6 11 1 17 -2
13 -5z"/>
<path d="M2338 213 c7 -3 16 -2 19 1 4 3 -2 6 -13 5 -11 0 -14 -3 -6 -6z"/>
<path d="M268 105 c3 -84 6 -95 21 -95 20 0 31 50 31 141 0 47 -1 49 -27 49
l-28 0 3 -95z"/>
<path d="M353 165 c0 -22 2 -30 4 -17 2 12 2 30 0 40 -3 9 -5 -1 -4 -23z"/>
<path d="M2348 174 c4 -24 6 -25 15 -8 6 11 15 22 21 26 6 4 -1 8 -15 8 -23 0
-26 -3 -21 -26z"/>
<path d="M560 176 c0 -10 14 -16 43 -18 l42 -3 1 -70 1 -70 164 -1 c90 -1 156
0 147 3 -15 4 -18 16 -18 67 0 39 6 69 16 84 l15 22 -205 0 c-173 0 -206 -2
-206 -14z"/>
<path d="M1031 174 c0 -11 3 -14 6 -6 3 7 2 16 -1 19 -3 4 -6 -2 -5 -13z"/>
<path d="M3851 174 c0 -11 3 -14 6 -6 3 7 2 16 -1 19 -3 4 -6 -2 -5 -13z"/>
<path d="M4650 175 c0 -8 2 -15 4 -15 2 0 6 7 10 15 3 8 1 15 -4 15 -6 0 -10
-7 -10 -15z"/>
<path d="M506 171 c-4 -6 -7 -42 -7 -80 l0 -70 -62 -4 c-54 -3 -52 -4 13 -3
l75 1 -3 30 c-2 17 -7 31 -11 33 -4 1 -4 24 0 50 7 49 6 61 -5 43z"/>
<path d="M2092 105 c0 -16 2 -22 5 -12 2 9 2 23 0 30 -3 6 -5 -1 -5 -18z"/>
<path d="M413 65 c0 -22 2 -30 4 -17 2 12 2 30 0 40 -3 9 -5 -1 -4 -23z"/>
<path d="M2079 63 c-16 -4 -33 -42 -24 -51 2 -2 18 -1 35 3 28 6 29 8 14 19
-9 7 -14 18 -10 24 4 7 6 11 4 11 -2 -1 -10 -3 -19 -6z"/>
<path d="M2757 63 c-11 -10 -8 -53 3 -53 6 0 10 13 10 30 0 31 -2 35 -13 23z"/>
<path d="M3262 30 c0 -14 2 -19 5 -12 2 6 2 18 0 25 -3 6 -5 1 -5 -13z"/>
<path d="M2460 20 c0 -5 5 -10 11 -10 5 0 7 5 4 10 -3 6 -8 10 -11 10 -2 0 -4
-4 -4 -10z"/>
</g>
</svg>
